<svg id="svg" version="1.1" xmlns="http://www.w3.org/2000/svg" viewBox="0 0 2048 2048" style="display: block;"><path d="M0 0 C675.84 0 1351.68 0 2048 0 C2048 675.84 2048 1351.68 2048 2048 C1372.16 2048 696.32 2048 0 2048 C0 1372.16 0 696.32 0 0 Z " transform="translate(0,0)" style="fill: #387AE4;"/><path d="M0 0 C0.66 0 1.32 0 2 0 C2 404.58 2 809.16 2 1226 C-78.52 1226 -159.04 1226 -242 1226 C-242.33 1077.5 -242.66 929 -243 776 C-244.32 778.31 -245.64 780.62 -247 783 C-247.66 783.33 -248.32 783.66 -249 784 C-249.495 784.99 -249.99 785.98 -250.5 787 C-252 790 -252 790 -254 791 C-254.7115625 792.670625 -254.7115625 792.670625 -255.4375 794.375 C-256.8184875 797.57889101 -257.55959498 798.77180411 -260 801 C-260.350625 801.70125 -260.70125 802.4025 -261.0625 803.125 C-262 805 -262 805 -264 806 C-264.72195409 807.73925305 -265.44207751 809.47934253 -266.14453125 811.2265625 C-267.31258915 813.64801585 -269.05152172 815.17723 -271 817 C-272.23512079 819.13309192 -272.23512079 819.13309192 -273 821 C-273.66 821 -274.32 821 -275 821 C-275.12375 821.598125 -275.2475 822.19625 -275.375 822.8125 C-276 825 -276 825 -278 828 C-275.36 828.33 -272.72 828.66 -270 829 C-270 887.08 -270 945.16 -270 1005 C-313.56 1005 -357.12 1005 -402 1005 C-402.66 1006.98 -403.32 1008.96 -404 1011 C-405.4375 1012.5625 -405.4375 1012.5625 -407 1014 C-407.515625 1014.886875 -408.03125 1015.77375 -408.5625 1016.6875 C-409.036875 1017.450625 -409.51125 1018.21375 -410 1019 C-410.66 1019 -411.32 1019 -412 1019 C-412.07863281 1019.52078125 -412.15726563 1020.0415625 -412.23828125 1020.578125 C-413.31222516 1023.9927159 -415.23365151 1026.78574518 -417.1875 1029.75 C-417.59315186 1030.37398682 -417.99880371 1030.99797363 -418.41674805 1031.64086914 C-421.03940267 1035.64113224 -423.80630664 1039.48733228 -426.73046875 1043.2734375 C-429.19795499 1046.62921879 -431.07764634 1050.30110594 -433.0625 1053.95703125 C-435.80105634 1058.90052817 -435.80105634 1058.90052817 -438 1060 C-439.38911392 1062.31518987 -440.71186999 1064.62984079 -442 1067 C-444.02742394 1070.72074056 -445.91697383 1074.05101845 -449 1077 C-449.515625 1077.886875 -450.03125 1078.77375 -450.5625 1079.6875 C-451.2740625 1080.8321875 -451.2740625 1080.8321875 -452 1082 C-452.66 1082 -453.32 1082 -454 1082 C-454.144375 1082.598125 -454.28875 1083.19625 -454.4375 1083.8125 C-455.39342353 1087.52998038 -456.33722733 1089.33722733 -459 1092 C-459.350625 1092.70125 -459.70125 1093.4025 -460.0625 1094.125 C-461 1096 -461 1096 -463 1097 C-463.96949243 1098.6381079 -464.93310121 1100.28021455 -465.85546875 1101.9453125 C-467.07459216 1104.13390947 -468.33100313 1106.29228985 -469.625 1108.4375 C-470.02976562 1109.11683594 -470.43453125 1109.79617188 -470.8515625 1110.49609375 C-471.23054688 1110.99238281 -471.60953125 1111.48867187 -472 1112 C-472.66 1112 -473.32 1112 -474 1112 C-474.11472656 1112.5878125 -474.22945312 1113.175625 -474.34765625 1113.78125 C-475.04420076 1116.15033552 -475.94418373 1117.55026956 -477.4375 1119.5 C-479.23648982 1121.91771753 -480.77996255 1124.22718762 -482 1127 C-482.66 1127 -483.32 1127 -484 1127 C-484.103125 1127.53625 -484.20625 1128.0725 -484.3125 1128.625 C-485.18819532 1131.65012928 -486.47247161 1134.2504489 -488 1137 C-488.66 1137.33 -489.32 1137.66 -490 1138 C-491.38911392 1140.31518987 -492.71186999 1142.62984079 -494 1145 C-497.59326247 1151.59437682 -497.59326247 1151.59437682 -499.42578125 1153.421875 C-501.2932379 1155.29396554 -502.66402954 1157.29753197 -504.125 1159.5 C-504.90230469 1160.66015625 -504.90230469 1160.66015625 -505.6953125 1161.84375 C-507.14001458 1164.05244085 -507.14001458 1164.05244085 -508 1167 C-509 1168 -510 1169 -511 1170 C-511.515625 1170.886875 -512.03125 1171.77375 -512.5625 1172.6875 C-513.2740625 1173.8321875 -513.2740625 1173.8321875 -514 1175 C-514.66 1175 -515.32 1175 -516 1175 C-516.11472656 1175.5878125 -516.22945312 1176.175625 -516.34765625 1176.78125 C-517.04420076 1179.15033552 -517.94418373 1180.55026956 -519.4375 1182.5 C-521.23648982 1184.91771753 -522.77996255 1187.22718762 -524 1190 C-524.66 1190 -525.32 1190 -526 1190 C-526.11472656 1190.5878125 -526.22945312 1191.175625 -526.34765625 1191.78125 C-527.04420076 1194.15033552 -527.94418373 1195.55026956 -529.4375 1197.5 C-531.23648982 1199.91771753 -532.77996255 1202.22718762 -534 1205 C-534.66 1205 -535.32 1205 -536 1205 C-536.11472656 1205.5878125 -536.22945312 1206.175625 -536.34765625 1206.78125 C-537.04420076 1209.15033552 -537.94418373 1210.55026956 -539.4375 1212.5 C-540.90753195 1214.46285068 -542.07046147 1216.148752 -543.125 1218.375 C-544 1220 -544 1220 -547 1221 C-548.52650372 1221.09011577 -550.05667236 1221.12375676 -551.58583355 1221.12304783 C-552.5323235 1221.12503888 -553.47881345 1221.12702993 -554.45398492 1221.12908131 C-555.49580243 1221.12616847 -556.53761995 1221.12325563 -557.61100769 1221.12025452 C-559.26869131 1221.12153615 -559.26869131 1221.12153615 -560.95986348 1221.12284368 C-564.68183602 1221.12449749 -568.403764 1221.11897869 -572.12573242 1221.11352539 C-574.78624066 1221.11324347 -577.44674613 1221.11335726 -580.10725403 1221.1139679 C-585.84487054 1221.11449272 -591.58247569 1221.1113502 -597.32008934 1221.10573006 C-605.61575626 1221.09760951 -613.91141768 1221.09499927 -622.20708815 1221.09374207 C-635.66564977 1221.09155242 -649.12420534 1221.0848947 -662.58276367 1221.07543945 C-675.65795868 1221.06626308 -688.73315204 1221.05918334 -701.80834961 1221.05493164 C-702.61405024 1221.05466892 -703.41975088 1221.05440619 -704.24986669 1221.05413551 C-708.29175401 1221.05283049 -712.33364135 1221.05156678 -716.37552869 1221.05032361 C-749.91702352 1221.03995372 -783.45851102 1221.02233777 -817 1221 C-815.78349601 1217.87388858 -814.62081496 1215.2021573 -812.609375 1212.51171875 C-812.14982422 1211.89167969 -811.69027344 1211.27164062 -811.21679688 1210.6328125 C-810.73275391 1209.99085937 -810.24871094 1209.34890625 -809.75 1208.6875 C-809.0084668 1207.68783203 -809.0084668 1207.68783203 -808.25195312 1206.66796875 C-805.70868552 1203.24575321 -803.11815376 1199.86525319 -800.5 1196.5 C-798.71007891 1194.15423447 -797.49568945 1192.00244907 -796.4375 1189.25 C-795 1186 -795 1186 -792.5625 1184.0625 C-789.10381481 1181.27868021 -787.74314298 1178.01215031 -786 1174 C-785.34 1174 -784.68 1174 -784 1174 C-783.731875 1173.030625 -783.46375 1172.06125 -783.1875 1171.0625 C-782.795625 1170.051875 -782.40375 1169.04125 -782 1168 C-781.01 1167.67 -780.02 1167.34 -779 1167 C-778.60955794 1165.68225804 -778.29044914 1164.34332728 -778 1163 C-777.03112419 1160.98473831 -776.0358679 1158.98166034 -775 1157 C-774.34 1157 -773.68 1157 -773 1157 C-771.92474806 1154.34771188 -770.90543849 1151.71631546 -770 1149 C-769 1148 -768 1147 -767 1146 C-766.484375 1145.113125 -765.96875 1144.22625 -765.4375 1143.3125 C-764.963125 1142.549375 -764.48875 1141.78625 -764 1141 C-763.34 1141 -762.68 1141 -762 1141 C-761.89558594 1140.44699219 -761.79117188 1139.89398437 -761.68359375 1139.32421875 C-760.85729684 1136.51480927 -759.5757686 1134.31734803 -758.0625 1131.8125 C-757.53785156 1130.93207031 -757.01320313 1130.05164062 -756.47265625 1129.14453125 C-755 1127 -755 1127 -753 1126 C-751.6108306 1123.68471766 -750.28786241 1121.37041343 -749 1119 C-745.27027027 1112.13513514 -745.27027027 1112.13513514 -743 1111 C-741.87775145 1109.11986894 -741.87775145 1109.11986894 -740.875 1106.9375 C-740.52179688 1106.20402344 -740.16859375 1105.47054688 -739.8046875 1104.71484375 C-739.40636719 1103.86599609 -739.40636719 1103.86599609 -739 1103 C-738.34 1103 -737.68 1103 -737 1103 C-736.731875 1102.030625 -736.46375 1101.06125 -736.1875 1100.0625 C-735.795625 1099.051875 -735.40375 1098.04125 -735 1097 C-734.01 1096.67 -733.02 1096.34 -732 1096 C-731.42155411 1094.10892858 -731.42155411 1094.10892858 -731 1092 C-729.94921875 1090.32421875 -729.94921875 1090.32421875 -728.6875 1088.6875 C-725.70524062 1084.66830561 -723.32099559 1080.42908347 -720.93359375 1076.0390625 C-718.20275035 1071.10137518 -718.20275035 1071.10137518 -716 1070 C-715.13341684 1068.61575496 -714.32892237 1067.19211561 -713.5625 1065.75 C-713.12421875 1064.94175781 -712.6859375 1064.13351562 -712.234375 1063.30078125 C-711.62335938 1062.16189453 -711.62335938 1062.16189453 -711 1061 C-709.3125 1057.9375 -709.3125 1057.9375 -708 1056 C-707.34 1056 -706.68 1056 -706 1056 C-705.5978125 1054.8553125 -705.5978125 1054.8553125 -705.1875 1053.6875 C-704 1051 -704 1051 -702.546875 1049.5703125 C-700.86541041 1047.86337117 -700.05907697 1046.35601726 -699.0625 1044.1875 C-697.32661055 1040.56275 -695.26638104 1037.32402553 -693 1034 C-692.30570621 1032.6808418 -691.62469505 1031.35350594 -691 1030 C-690.34 1030 -689.68 1030 -689 1030 C-688.5978125 1029.17242188 -688.5978125 1029.17242188 -688.1875 1028.328125 C-686.87203416 1025.74911961 -685.46150838 1023.24917932 -684 1020.75 C-683.484375 1019.85796875 -682.96875 1018.9659375 -682.4375 1018.046875 C-681.963125 1017.37140625 -681.48875 1016.6959375 -681 1016 C-680.34 1016 -679.68 1016 -679 1016 C-678.88527344 1015.42378906 -678.77054688 1014.84757812 -678.65234375 1014.25390625 C-677.94437648 1011.80781575 -676.94628361 1010.06860888 -675.5625 1007.9375 C-675.13066406 1007.26589844 -674.69882812 1006.59429688 -674.25390625 1005.90234375 C-673.17451401 1004.26476113 -672.08794294 1002.6319144 -671 1001 C-670.34 1001 -669.68 1001 -669 1001 C-668.7834375 1000.1028125 -668.7834375 1000.1028125 -668.5625 999.1875 C-667.45823486 994.89313558 -666.09594065 993.09594065 -663 990 C-661.76487921 987.86690808 -661.76487921 987.86690808 -661 986 C-660.34 986 -659.68 986 -659 986 C-658.8453125 985.195625 -658.8453125 985.195625 -658.6875 984.375 C-657.81180468 981.34987072 -656.52752839 978.7495511 -655 976 C-654.34 975.67 -653.68 975.34 -653 975 C-651.6108306 972.68471766 -650.28786241 970.37041343 -649 968 C-645.27027027 961.13513514 -645.27027027 961.13513514 -643 960 C-641.61088608 957.68481013 -640.28813001 955.37015921 -639 953 C-636.97346954 949.28089916 -635.08614839 945.94586892 -632 943 C-631.649375 942.29875 -631.29875 941.5975 -630.9375 940.875 C-630 939 -630 939 -628 938 C-626.6108306 935.68471766 -625.28786241 933.37041343 -624 931 C-620.27027027 924.13513514 -620.27027027 924.13513514 -618 923 C-617.11249875 921.36153616 -616.28694963 919.68906261 -615.5 918 C-613.22222222 913.11111111 -613.22222222 913.11111111 -611 912 C-609.86649466 909.98330173 -609.86649466 909.98330173 -609 908 C-608.34 908 -607.68 908 -607 908 C-606.8453125 907.1028125 -606.8453125 907.1028125 -606.6875 906.1875 C-606 904 -606 904 -604.59375 902.625 C-602.81292395 900.80925579 -601.90115102 899.10242111 -600.8125 896.8125 C-600.29623047 895.73935547 -600.29623047 895.73935547 -599.76953125 894.64453125 C-599.51558594 894.10183594 -599.26164063 893.55914063 -599 893 C-598.34 893 -597.68 893 -597 893 C-596.8453125 892.195625 -596.8453125 892.195625 -596.6875 891.375 C-595.36322896 886.80024548 -593.42234113 883.27354369 -590 880 C-588.82425289 877.90010348 -588.82425289 877.90010348 -588 876 C-587.34 876 -586.68 876 -586 876 C-584.92474806 873.34771188 -583.90543849 870.71631546 -583 868 C-582 867 -581 866 -580 865 C-579.484375 864.113125 -578.96875 863.22625 -578.4375 862.3125 C-577.963125 861.549375 -577.48875 860.78625 -577 860 C-576.34 860 -575.68 860 -575 860 C-574.8453125 859.16855469 -574.8453125 859.16855469 -574.6875 858.3203125 C-573.85534893 855.51180265 -572.54381644 853.36143514 -571 850.875 C-568.89578548 847.49540949 -568.89578548 847.49540949 -567 844 C-566.34 844 -565.68 844 -565 844 C-564.690625 843.21625 -564.38125 842.4325 -564.0625 841.625 C-563 839 -563 839 -562 837 C-561.34 837 -560.68 837 -560 837 C-559.731875 836.030625 -559.46375 835.06125 -559.1875 834.0625 C-558.795625 833.051875 -558.40375 832.04125 -558 831 C-557.01 830.67 -556.02 830.34 -555 830 C-554.61689523 828.68010621 -554.28963213 827.34350367 -554 826 C-552.87890625 824.21875 -552.87890625 824.21875 -551.5625 822.5 C-549.76351018 820.08228247 -548.22003745 817.77281238 -547 815 C-546.34 815 -545.68 815 -545 815 C-544.814375 814.195625 -544.62875 813.39125 -544.4375 812.5625 C-542.78856488 808.4760086 -540.54681813 805.68849495 -537.796875 802.28515625 C-535.23235017 799.02374967 -533.11529314 795.56294687 -531 792 C-523.34701055 779.1852286 -523.34701055 779.1852286 -521 776 C-520.34 776 -519.68 776 -519 776 C-518.71125 775.2575 -518.4225 774.515 -518.125 773.75 C-517.17697356 771.43260203 -516.15154089 769.22082885 -515 767 C-514.34 767 -513.68 767 -513 767 C-512.690625 766.05125 -512.38125 765.1025 -512.0625 764.125 C-511 761 -511 761 -510 759 C-509.34 759 -508.68 759 -508 759 C-507.731875 758.29875 -507.46375 757.5975 -507.1875 756.875 C-505.9318551 753.8350176 -504.49764877 750.9272226 -503 748 C-502.34 748 -501.68 748 -501 748 C-500.731875 747.030625 -500.46375 746.06125 -500.1875 745.0625 C-499.795625 744.051875 -499.40375 743.04125 -499 742 C-498.01 741.67 -497.02 741.34 -496 741 C-495.65813124 739.6688296 -495.32687529 738.33493125 -495 737 C-493.74612782 735.12608113 -492.42635626 733.29545634 -491.0625 731.5 C-488.21140152 727.76821792 -488.21140152 727.76821792 -485.87109375 723.71875 C-485 722 -485 722 -483 721 C-481.95191959 719.02477154 -480.9479589 717.02518491 -480 715 C-479.34 715 -478.68 715 -478 715 C-477.690625 714.05125 -477.38125 713.1025 -477.0625 712.125 C-476 709 -476 709 -475 707 C-474.34 707 -473.68 707 -473 707 C-472.89429688 706.41992188 -472.78859375 705.83984375 -472.6796875 705.2421875 C-471.90216775 702.67726603 -470.80303323 701.20375758 -469.125 699.125 C-466.61752546 695.90627067 -464.68204938 692.7378875 -463 689 C-462.34 689 -461.68 689 -461 689 C-460.34 687.35 -459.68 685.7 -459 684 C-458.34 684 -457.68 684 -457 684 C-456.896875 683.46375 -456.79375 682.9275 -456.6875 682.375 C-455.81180468 679.34987072 -454.52752839 676.7495511 -453 674 C-452.34 673.67 -451.68 673.34 -451 673 C-449.6108306 670.68471766 -448.28786241 668.37041343 -447 666 C-443.27027027 659.13513514 -443.27027027 659.13513514 -441 658 C-439.87775145 656.11986894 -439.87775145 656.11986894 -438.875 653.9375 C-438.52179688 653.20402344 -438.16859375 652.47054687 -437.8046875 651.71484375 C-437.53914063 651.14894531 -437.27359375 650.58304688 -437 650 C-436.34 650 -435.68 650 -435 650 C-434.71125 649.030625 -434.4225 648.06125 -434.125 647.0625 C-433 644 -433 644 -431 643 C-429.88365848 641.34948712 -429.88365848 641.34948712 -428.875 639.4375 C-428.25625 638.303125 -427.6375 637.16875 -427 636 C-426.34 636 -425.68 636 -425 636 C-424.896875 635.484375 -424.79375 634.96875 -424.6875 634.4375 C-423.413953 629.92219701 -422.31766238 626.04737266 -418.5625 623.0625 C-415.10381481 620.27868021 -413.74314298 617.01215031 -412 613 C-411.34 613 -410.68 613 -410 613 C-409.79375 612.195625 -409.5875 611.39125 -409.375 610.5625 C-407.37821059 605.38900015 -404.42098258 600.34384343 -400.40625 596.45703125 C-398.12408917 594.09245905 -397.27559161 590.99486727 -396 588 C-395.34 587.67 -394.68 587.34 -394 587 C-393.11249875 585.36153616 -392.28694963 583.68906261 -391.5 582 C-389.22222222 577.11111111 -389.22222222 577.11111111 -387 576 C-385.86649466 573.98330173 -385.86649466 573.98330173 -385 572 C-384.34 572 -383.68 572 -383 572 C-382.731875 571.030625 -382.46375 570.06125 -382.1875 569.0625 C-381.795625 568.051875 -381.40375 567.04125 -381 566 C-380.01 565.67 -379.02 565.34 -378 565 C-377.61873074 563.67957483 -377.29145243 562.34310996 -377 561 C-375.84375 559.18359375 -375.84375 559.18359375 -374.5 557.4375 C-372.76352292 555.17099358 -371.92509236 553.77527707 -371 551 C-370.01414217 549.98605506 -369.0120614 548.98779134 -368 548 C-366.94627107 546.54408446 -365.92682015 545.06292673 -364.9375 543.5625 C-364.17759766 542.41974609 -364.17759766 542.41974609 -363.40234375 541.25390625 C-362.13280317 539.21344687 -361.0322381 537.1681939 -360 535 C-359.34 535 -358.68 535 -358 535 C-357.7525 534.113125 -357.505 533.22625 -357.25 532.3125 C-355.93611137 528.83069514 -354.35988873 526.84574817 -352 524 C-350.25882575 521.06176845 -348.59931608 518.09912307 -346.96484375 515.1015625 C-345.2345626 511.98310902 -343.5715175 509.45463034 -341 507 C-340.649375 506.29875 -340.29875 505.5975 -339.9375 504.875 C-339 503 -339 503 -337 502 C-336.03050757 500.3618921 -335.06689879 498.71978545 -334.14453125 497.0546875 C-332.92540784 494.86609053 -331.66899687 492.70771015 -330.375 490.5625 C-329.97023438 489.88316406 -329.56546875 489.20382812 -329.1484375 488.50390625 C-328.76945312 488.00761719 -328.39046875 487.51132812 -328 487 C-327.34 487 -326.68 487 -326 487 C-325.92523437 486.48308594 -325.85046875 485.96617187 -325.7734375 485.43359375 C-324.66280776 481.93903655 -322.640805 479.08939706 -320.625 476.0625 C-319.8248478 474.84549432 -319.02535627 473.62805398 -318.2265625 472.41015625 C-317.8440332 471.83281738 -317.46150391 471.25547852 -317.06738281 470.66064453 C-316.10285416 469.1600215 -315.2143141 467.61121718 -314.3359375 466.05859375 C-313.89507813 465.37925781 -313.45421875 464.69992187 -313 464 C-312.34 464 -311.68 464 -311 464 C-310.71125 463.071875 -310.4225 462.14375 -310.125 461.1875 C-309 458 -309 458 -307 455 C-306.34 455 -305.68 455 -305 455 C-304.773125 453.948125 -304.54625 452.89625 -304.3125 451.8125 C-303.67525177 448.8579855 -302.87315188 447.87484319 -300.65625 445.6875 C-297.73034277 442.72717033 -296.08860797 439.87788607 -294.1875 436.1875 C-293.58292969 435.02605469 -292.97835937 433.86460937 -292.35546875 432.66796875 C-291.90816406 431.78753906 -291.46085938 430.90710938 -291 430 C-290.34 430 -289.68 430 -289 430 C-288.34 428.35 -287.68 426.7 -287 425 C-286.34 425 -285.68 425 -285 425 C-284.71125 424.0925 -284.4225 423.185 -284.125 422.25 C-281.74418605 415.37209302 -281.74418605 415.37209302 -279 414 C-277.86649466 411.98330173 -277.86649466 411.98330173 -277 410 C-276.34 410 -275.68 410 -275 410 C-274.896875 409.46375 -274.79375 408.9275 -274.6875 408.375 C-273.81180468 405.34987072 -272.52752839 402.7495511 -271 400 C-270.34 399.67 -269.68 399.34 -269 399 C-267.61088608 396.68481013 -266.28813001 394.37015921 -265 392 C-261.39010717 385.37510305 -261.39010717 385.37510305 -259.375 383.4375 C-257.32077865 381.28990495 -256.8117392 378.80986644 -256 376 C-255.34 376 -254.68 376 -254 376 C-254 375.34 -254 374.68 -254 374 C-253.34 373.67 -252.68 373.34 -252 373 C-251.67 372.01 -251.34 371.02 -251 370 C-250 369 -249 368 -248 367 C-246.82425289 364.90010348 -246.82425289 364.90010348 -246 363 C-245.34 363 -244.68 363 -244 363 C-243.7525 362.113125 -243.505 361.22625 -243.25 360.3125 C-241.92174825 356.79263288 -240.37277128 354.90005379 -238 352 C-235.35393399 347.80518669 -232.84530046 343.52535422 -230.44140625 339.1875 C-229.96574219 338.465625 -229.49007812 337.74375 -229 337 C-228.34 337 -227.68 337 -227 337 C-226.814375 336.1028125 -226.814375 336.1028125 -226.625 335.1875 C-226 333 -226 333 -224 330 C-223.34 330 -222.68 330 -222 330 C-221.82791016 329.11828125 -221.82791016 329.11828125 -221.65234375 328.21875 C-220.95579924 325.84966448 -220.05581627 324.44973044 -218.5625 322.5 C-216.76351018 320.08228247 -215.22003745 317.77281238 -214 315 C-213.34 315 -212.68 315 -212 315 C-211.896875 314.46375 -211.79375 313.9275 -211.6875 313.375 C-210.81180468 310.34987072 -209.52752839 307.7495511 -208 305 C-207.34 304.67 -206.68 304.34 -206 304 C-205.05879117 302.35288454 -204.12175021 300.70317896 -203.2109375 299.0390625 C-201.49106345 296.14301653 -199.44654305 293.53951461 -197.3671875 290.89453125 C-196.00172279 289.00238729 -194.98338725 287.11194119 -194 285 C-193.34 285 -192.68 285 -192 285 C-191.9175 284.484375 -191.835 283.96875 -191.75 283.4375 C-190.67859775 279.95544268 -188.86476395 277.12799115 -187 274 C-186.34 274 -185.68 274 -185 274 C-184.814375 273.1028125 -184.814375 273.1028125 -184.625 272.1875 C-184 270 -184 270 -182 267 C-181.34 267 -180.68 267 -180 267 C-179.855625 266.401875 -179.71125 265.80375 -179.5625 265.1875 C-179.1127561 263.43849596 -178.57107659 261.71322977 -178 260 C-177.34 259.67 -176.68 259.34 -176 259 C-174.88365848 257.34948712 -174.88365848 257.34948712 -173.875 255.4375 C-173.25625 254.303125 -172.6375 253.16875 -172 252 C-171.34 252 -170.68 252 -170 252 C-169.814375 251.13375 -169.814375 251.13375 -169.625 250.25 C-168.99351176 247.97664233 -168.11141809 246.0746471 -167 244 C-166.34 244 -165.68 244 -165 244 C-164.731875 243.030625 -164.46375 242.06125 -164.1875 241.0625 C-163.5996875 239.5465625 -163.5996875 239.5465625 -163 238 C-162.01 237.67 -161.02 237.34 -160 237 C-159.60955794 235.68225804 -159.29044914 234.34332728 -159 233 C-156.37974684 227.18987342 -156.37974684 227.18987342 -154 226 C-152.98906028 224.27161918 -151.98137728 222.54093627 -151.01171875 220.7890625 C-149.82979444 218.69901874 -148.58784314 216.8043672 -147 215 C-146.34 215 -145.68 215 -145 215 C-144.9175 214.484375 -144.835 213.96875 -144.75 213.4375 C-142.7978662 207.09306514 -138.4676906 201.71244829 -134.671875 196.359375 C-132.07923021 192.7005959 -129.58335975 189.03209802 -127.375 185.125 C-126.92125 184.42375 -126.4675 183.7225 -126 183 C-125.34 183 -124.68 183 -124 183 C-123.731875 182.113125 -123.46375 181.22625 -123.1875 180.3125 C-122.0749365 177.2090334 -120.89804222 174.68889315 -119 172 C-118.34 172 -117.68 172 -117 172 C-116.72542969 171.43539062 -116.45085938 170.87078125 -116.16796875 170.2890625 C-112.58082155 163.25873388 -108.21436699 156.72342995 -103.61328125 150.32421875 C-101.92734784 147.97080572 -101.92734784 147.97080572 -100.41796875 145.20703125 C-99.95003906 144.47871094 -99.48210938 143.75039063 -99 143 C-98.34 143 -97.68 143 -97 143 C-95.92474806 140.34771188 -94.90543849 137.71631546 -94 135 C-93 134 -92 133 -91 132 C-90.649375 131.29875 -90.29875 130.5975 -89.9375 129.875 C-89 128 -89 128 -87 127 C-85.95040203 125.36411434 -84.95788255 123.69122405 -84 122 C-82.98174533 120.24849833 -81.96093612 118.49847911 -80.9375 116.75 C-80.17759766 115.44289063 -80.17759766 115.44289063 -79.40234375 114.109375 C-78 112 -78 112 -76 111 C-74.86649466 108.98330173 -74.86649466 108.98330173 -74 107 C-73.34 107 -72.68 107 -72 107 C-71.87625 106.4225 -71.7525 105.845 -71.625 105.25 C-70.5127323 101.24583628 -68.89871874 98.89871874 -66 96 C-65.484375 95.113125 -64.96875 94.22625 -64.4375 93.3125 C-63.7259375 92.1678125 -63.7259375 92.1678125 -63 91 C-62.34 91 -61.68 91 -61 91 C-60.855625 90.401875 -60.71125 89.80375 -60.5625 89.1875 C-59.60068707 85.44711638 -58.67581948 83.67581948 -56 81 C-54.1376453 78.33062494 -52.37408126 75.62534668 -50.703125 72.83203125 C-50.26484375 72.10371094 -49.8265625 71.37539063 -49.375 70.625 C-48.97023438 69.93664062 -48.56546875 69.24828125 -48.1484375 68.5390625 C-47.76945313 68.03117187 -47.39046875 67.52328125 -47 67 C-46.34 67 -45.68 67 -45 67 C-44.73316406 66.44183594 -44.46632813 65.88367188 -44.19140625 65.30859375 C-39.72365635 56.65141279 -33.78850989 48.72834889 -28.22119141 40.75537109 C-26.55590264 38.36164333 -24.90693817 35.95689572 -23.25854492 33.55151367 C-21.90435102 31.57665799 -20.54624829 29.60453701 -19.1875 27.6328125 C-17.44650531 25.10610916 -15.71061791 22.57614199 -13.98046875 20.04199219 C-11.80560249 16.85708669 -9.62204384 13.67827317 -7.4375 10.5 C-6.73423584 9.46568848 -6.03097168 8.43137695 -5.30639648 7.36572266 C-4.64712158 6.40972168 -3.98784668 5.4537207 -3.30859375 4.46875 C-2.71876709 3.60701172 -2.12894043 2.74527344 -1.52124023 1.85742188 C-1.01923096 1.24447266 -0.51722168 0.63152344 0 0 Z " transform="translate(1063,404)" style="fill: #FEFEFE;"/><path d="M0 0 C203.61 0 407.22 0 617 0 C617 71.61 617 143.22 617 217 C413.39 217 209.78 217 0 217 C0 145.39 0 73.78 0 0 Z " transform="translate(1098,1413)" style="fill: #FEFEFE;"/><path d="M0 0 C4.71610027 3.14406685 7.25028979 5.1204096 10.8125 9.1875 C18.22872965 17.48521296 26.19152121 25.24477426 34.1027832 33.06518555 C42.90929059 41.79146788 42.90929059 41.79146788 46.38671875 45.88671875 C51.85195847 52.29449867 58.01716831 58.08196432 64 64 C78.31856517 78.16349046 78.31856517 78.16349046 83.59472656 84.38525391 C86.47421345 87.69396243 89.76047732 90.61289345 92.9609375 93.60546875 C96.4675291 97.72336272 96.12492022 102.20409164 96.1241985 107.44311506 C96.12644579 108.75589434 96.12869308 110.06867363 96.13100848 111.4212341 C96.12844277 112.87942678 96.12578585 114.33761929 96.12304783 115.79581165 C96.12378737 117.350168 96.12496585 118.90452419 96.12654433 120.45887992 C96.12962123 124.7513054 96.12643169 129.04370731 96.12226619 133.33613104 C96.11883901 137.99787669 96.12120145 142.65961989 96.12284368 147.32136601 C96.12492027 155.4985472 96.1232688 163.67572112 96.11920547 171.85290146 C96.11318017 184.01214545 96.11286877 196.17138484 96.11374746 208.33063005 C96.11506264 228.78260417 96.1117151 249.23457506 96.10573006 269.68654823 C96.09981742 289.94291512 96.095965 310.19928067 96.09487724 330.45564842 C96.0948085 331.7141076 96.09473976 332.97256678 96.09466894 334.26916108 C96.09433062 340.65997707 96.09402923 347.05079306 96.09374207 353.44160905 C96.09164044 398.73329052 96.08490048 444.02497001 96.07543945 489.31665039 C96.07314781 500.29697672 96.07087245 511.27730305 96.06866455 522.25762939 C96.0685276 522.93862282 96.06839065 523.61961624 96.06824955 524.32124582 C96.06190642 555.97414688 96.05818019 587.62704809 96.05512976 619.27994962 C96.05493169 621.33467633 96.0547325 623.38940303 96.05453308 625.44412974 C96.0532133 639.06081876 96.05193865 652.6775078 96.05069422 666.29419683 C96.04815864 694.03411851 96.0453366 721.77404016 96.04234314 749.51396179 C96.0421372 751.42720803 96.0421372 751.42720803 96.04192711 753.37910571 C96.03272308 838.58607121 96.01680075 923.7930357 96 1009 C75.21 1009 54.42 1009 33 1009 C33 1080.61 33 1152.22 33 1226 C22.11 1226 11.22 1226 0 1226 C0 821.42 0 416.84 0 0 Z " transform="translate(1065,404)" style="fill: #2A559C;"/><path d="M0 0 C0.66 0 1.32 0 2 0 C5.53230833 43.43062713 6.41218163 75.18719659 -22.90771484 109.98242188 C-29.1468712 117.47477431 -34.37723709 125.6515023 -39.71670532 133.79455566 C-42.09149359 137.39735757 -44.51175624 140.96840595 -46.93351746 144.53973389 C-54.89901942 156.28755287 -62.70943793 168.1357631 -70.5 180 C-80.6583019 195.47006483 -90.93724019 210.85193641 -101.3125 226.17724609 C-110.47689097 239.71891755 -119.5250735 253.33209604 -128.5 267 C-138.6583019 282.47006483 -148.93724019 297.85193641 -159.3125 313.17724609 C-168.47689097 326.71891755 -177.5250735 340.33209604 -186.5 354 C-196.65164869 369.45993266 -206.92264863 384.83259035 -217.2923584 400.14703369 C-228.12035642 416.14369562 -238.78237068 432.2457355 -249.37304688 448.40039062 C-254.87114512 456.78109298 -260.40592723 465.12199952 -266.14501953 473.33984375 C-268.49927676 476.71599363 -270.79137 480.13012018 -273.0625 483.5625 C-273.90493403 484.83073839 -274.74738213 486.09896744 -275.58984375 487.3671875 C-275.9957373 487.97916992 -276.40163086 488.59115234 -276.81982422 489.22167969 C-278.58389845 491.87983375 -280.35456492 494.5335797 -282.125 497.1875 C-283.09179688 498.63769531 -283.09179688 498.63769531 -284.078125 500.1171875 C-287.38541667 505.078125 -290.69270833 510.0390625 -294 515 C-294.38414062 515.57621094 -294.76828125 516.15242187 -295.1640625 516.74609375 C-295.56367187 517.34550781 -295.96328125 517.94492187 -296.375 518.5625 C-296.98770752 519.48156128 -296.98770752 519.48156128 -297.61279297 520.41918945 C-304.01790365 530.02685547 -310.42301432 539.63452148 -316.828125 549.2421875 C-317.33512939 550.00273438 -317.84213379 550.76328125 -318.36450195 551.546875 C-319.48788801 553.23187024 -320.6114317 554.91676041 -321.73510742 556.6015625 C-325.21139756 561.81442269 -328.68506624 567.02900467 -332.15534973 572.24586487 C-334.79006978 576.20624031 -337.4260295 580.16578967 -340.0625 584.125 C-340.61473236 584.95432037 -341.16696472 585.78364075 -341.7359314 586.63809204 C-349.94388919 598.95999541 -358.20644531 611.24388872 -366.50045776 623.50799561 C-377.55247558 639.85084331 -388.4823692 656.26765135 -399.31167603 672.75888062 C-408.86827792 687.3075379 -418.55420465 701.76325542 -428.3125 716.17724609 C-437.47689097 729.71891755 -446.5250735 743.33209604 -455.5 757 C-465.6583019 772.47006483 -475.93724019 787.85193641 -486.3125 803.17724609 C-495.47689097 816.71891755 -504.5250735 830.33209604 -513.5 844 C-523.6583019 859.47006483 -533.93724019 874.85193641 -544.3125 890.17724609 C-553.47689097 903.71891755 -562.5250735 917.33209604 -571.5 931 C-581.6583019 946.47006483 -591.93724019 961.85193641 -602.3125 977.17724609 C-611.47689097 990.71891755 -620.5250735 1004.33209604 -629.5 1018 C-639.6583019 1033.47006483 -649.93724019 1048.85193641 -660.3125 1064.17724609 C-669.4768916 1077.71891848 -678.52503231 1091.33212187 -687.5 1105 C-698.63793901 1121.96154683 -709.9140693 1138.8247624 -721.28515625 1155.63085938 C-721.8615535 1156.48278366 -722.43795074 1157.33470795 -723.03181458 1158.21244812 C-724.08249336 1159.76466438 -725.13375284 1161.31648789 -726.18583679 1162.86775208 C-731.16527851 1170.21836632 -736.07455981 1177.61183971 -741 1185 C-633.09 1185.495 -633.09 1185.495 -523 1186 C-523.33 1187.32 -523.66 1188.64 -524 1190 C-524.66 1190 -525.32 1190 -526 1190 C-526.11472656 1190.5878125 -526.22945312 1191.175625 -526.34765625 1191.78125 C-527.04420076 1194.15033552 -527.94418373 1195.55026956 -529.4375 1197.5 C-531.23648982 1199.91771753 -532.77996255 1202.22718762 -534 1205 C-534.66 1205 -535.32 1205 -536 1205 C-536.11472656 1205.5878125 -536.22945312 1206.175625 -536.34765625 1206.78125 C-537.04420076 1209.15033552 -537.94418373 1210.55026956 -539.4375 1212.5 C-540.90753195 1214.46285068 -542.07046147 1216.148752 -543.125 1218.375 C-544 1220 -544 1220 -547 1221 C-548.52650372 1221.09011577 -550.05667236 1221.12375676 -551.58583355 1221.12304783 C-552.5323235 1221.12503888 -553.47881345 1221.12702993 -554.45398492 1221.12908131 C-555.49580243 1221.12616847 -556.53761995 1221.12325563 -557.61100769 1221.12025452 C-559.26869131 1221.12153615 -559.26869131 1221.12153615 -560.95986348 1221.12284368 C-564.68183602 1221.12449749 -568.403764 1221.11897869 -572.12573242 1221.11352539 C-574.78624066 1221.11324347 -577.44674613 1221.11335726 -580.10725403 1221.1139679 C-585.84487054 1221.11449272 -591.58247569 1221.1113502 -597.32008934 1221.10573006 C-605.61575626 1221.09760951 -613.91141768 1221.09499927 -622.20708815 1221.09374207 C-635.66564977 1221.09155242 -649.12420534 1221.0848947 -662.58276367 1221.07543945 C-675.65795868 1221.06626308 -688.73315204 1221.05918334 -701.80834961 1221.05493164 C-702.61405024 1221.05466892 -703.41975088 1221.05440619 -704.24986669 1221.05413551 C-708.29175401 1221.05283049 -712.33364135 1221.05156678 -716.37552869 1221.05032361 C-749.91702352 1221.03995372 -783.45851102 1221.02233777 -817 1221 C-815.78349601 1217.87388858 -814.62081496 1215.2021573 -812.609375 1212.51171875 C-812.14982422 1211.89167969 -811.69027344 1211.27164062 -811.21679688 1210.6328125 C-810.73275391 1209.99085937 -810.24871094 1209.34890625 -809.75 1208.6875 C-809.0084668 1207.68783203 -809.0084668 1207.68783203 -808.25195312 1206.66796875 C-805.70868552 1203.24575321 -803.11815376 1199.86525319 -800.5 1196.5 C-798.71007891 1194.15423447 -797.49568945 1192.00244907 -796.4375 1189.25 C-795 1186 -795 1186 -792.5625 1184.0625 C-789.10381481 1181.27868021 -787.74314298 1178.01215031 -786 1174 C-785.34 1174 -784.68 1174 -784 1174 C-783.731875 1173.030625 -783.46375 1172.06125 -783.1875 1171.0625 C-782.795625 1170.051875 -782.40375 1169.04125 -782 1168 C-781.01 1167.67 -780.02 1167.34 -779 1167 C-778.60955794 1165.68225804 -778.29044914 1164.34332728 -778 1163 C-777.03112419 1160.98473831 -776.0358679 1158.98166034 -775 1157 C-774.34 1157 -773.68 1157 -773 1157 C-771.92474806 1154.34771188 -770.90543849 1151.71631546 -770 1149 C-769 1148 -768 1147 -767 1146 C-766.484375 1145.113125 -765.96875 1144.22625 -765.4375 1143.3125 C-764.963125 1142.549375 -764.48875 1141.78625 -764 1141 C-763.34 1141 -762.68 1141 -762 1141 C-761.89558594 1140.44699219 -761.79117188 1139.89398437 -761.68359375 1139.32421875 C-760.85729684 1136.51480927 -759.5757686 1134.31734803 -758.0625 1131.8125 C-757.53785156 1130.93207031 -757.01320313 1130.05164062 -756.47265625 1129.14453125 C-755 1127 -755 1127 -753 1126 C-751.6108306 1123.68471766 -750.28786241 1121.37041343 -749 1119 C-745.27027027 1112.13513514 -745.27027027 1112.13513514 -743 1111 C-741.87775145 1109.11986894 -741.87775145 1109.11986894 -740.875 1106.9375 C-740.52179688 1106.20402344 -740.16859375 1105.47054688 -739.8046875 1104.71484375 C-739.40636719 1103.86599609 -739.40636719 1103.86599609 -739 1103 C-738.34 1103 -737.68 1103 -737 1103 C-736.731875 1102.030625 -736.46375 1101.06125 -736.1875 1100.0625 C-735.795625 1099.051875 -735.40375 1098.04125 -735 1097 C-734.01 1096.67 -733.02 1096.34 -732 1096 C-731.42155411 1094.10892858 -731.42155411 1094.10892858 -731 1092 C-729.94921875 1090.32421875 -729.94921875 1090.32421875 -728.6875 1088.6875 C-725.70524062 1084.66830561 -723.32099559 1080.42908347 -720.93359375 1076.0390625 C-718.20275035 1071.10137518 -718.20275035 1071.10137518 -716 1070 C-715.13341684 1068.61575496 -714.32892237 1067.19211561 -713.5625 1065.75 C-713.12421875 1064.94175781 -712.6859375 1064.13351562 -712.234375 1063.30078125 C-711.62335938 1062.16189453 -711.62335938 1062.16189453 -711 1061 C-709.3125 1057.9375 -709.3125 1057.9375 -708 1056 C-707.34 1056 -706.68 1056 -706 1056 C-705.5978125 1054.8553125 -705.5978125 1054.8553125 -705.1875 1053.6875 C-704 1051 -704 1051 -702.546875 1049.5703125 C-700.86541041 1047.86337117 -700.05907697 1046.35601726 -699.0625 1044.1875 C-697.32661055 1040.56275 -695.26638104 1037.32402553 -693 1034 C-692.30570621 1032.6808418 -691.62469505 1031.35350594 -691 1030 C-690.34 1030 -689.68 1030 -689 1030 C-688.5978125 1029.17242188 -688.5978125 1029.17242188 -688.1875 1028.328125 C-686.87203416 1025.74911961 -685.46150838 1023.24917932 -684 1020.75 C-683.484375 1019.85796875 -682.96875 1018.9659375 -682.4375 1018.046875 C-681.963125 1017.37140625 -681.48875 1016.6959375 -681 1016 C-680.34 1016 -679.68 1016 -679 1016 C-678.88527344 1015.42378906 -678.77054688 1014.84757812 -678.65234375 1014.25390625 C-677.94437648 1011.80781575 -676.94628361 1010.06860888 -675.5625 1007.9375 C-675.13066406 1007.26589844 -674.69882812 1006.59429688 -674.25390625 1005.90234375 C-673.17451401 1004.26476113 -672.08794294 1002.6319144 -671 1001 C-670.34 1001 -669.68 1001 -669 1001 C-668.7834375 1000.1028125 -668.7834375 1000.1028125 -668.5625 999.1875 C-667.45823486 994.89313558 -666.09594065 993.09594065 -663 990 C-661.76487921 987.86690808 -661.76487921 987.86690808 -661 986 C-660.34 986 -659.68 986 -659 986 C-658.8453125 985.195625 -658.8453125 985.195625 -658.6875 984.375 C-657.81180468 981.34987072 -656.52752839 978.7495511 -655 976 C-654.34 975.67 -653.68 975.34 -653 975 C-651.6108306 972.68471766 -650.28786241 970.37041343 -649 968 C-645.27027027 961.13513514 -645.27027027 961.13513514 -643 960 C-641.61088608 957.68481013 -640.28813001 955.37015921 -639 953 C-636.97346954 949.28089916 -635.08614839 945.94586892 -632 943 C-631.649375 942.29875 -631.29875 941.5975 -630.9375 940.875 C-630 939 -630 939 -628 938 C-626.6108306 935.68471766 -625.28786241 933.37041343 -624 931 C-620.27027027 924.13513514 -620.27027027 924.13513514 -618 923 C-617.11249875 921.36153616 -616.28694963 919.68906261 -615.5 918 C-613.22222222 913.11111111 -613.22222222 913.11111111 -611 912 C-609.86649466 909.98330173 -609.86649466 909.98330173 -609 908 C-608.34 908 -607.68 908 -607 908 C-606.8453125 907.1028125 -606.8453125 907.1028125 -606.6875 906.1875 C-606 904 -606 904 -604.59375 902.625 C-602.81292395 900.80925579 -601.90115102 899.10242111 -600.8125 896.8125 C-600.29623047 895.73935547 -600.29623047 895.73935547 -599.76953125 894.64453125 C-599.51558594 894.10183594 -599.26164063 893.55914063 -599 893 C-598.34 893 -597.68 893 -597 893 C-596.8453125 892.195625 -596.8453125 892.195625 -596.6875 891.375 C-595.36322896 886.80024548 -593.42234113 883.27354369 -590 880 C-588.82425289 877.90010348 -588.82425289 877.90010348 -588 876 C-587.34 876 -586.68 876 -586 876 C-584.92474806 873.34771188 -583.90543849 870.71631546 -583 868 C-582 867 -581 866 -580 865 C-579.484375 864.113125 -578.96875 863.22625 -578.4375 862.3125 C-577.963125 861.549375 -577.48875 860.78625 -577 860 C-576.34 860 -575.68 860 -575 860 C-574.8453125 859.16855469 -574.8453125 859.16855469 -574.6875 858.3203125 C-573.85534893 855.51180265 -572.54381644 853.36143514 -571 850.875 C-568.89578548 847.49540949 -568.89578548 847.49540949 -567 844 C-566.34 844 -565.68 844 -565 844 C-564.690625 843.21625 -564.38125 842.4325 -564.0625 841.625 C-563 839 -563 839 -562 837 C-561.34 837 -560.68 837 -560 837 C-559.731875 836.030625 -559.46375 835.06125 -559.1875 834.0625 C-558.795625 833.051875 -558.40375 832.04125 -558 831 C-557.01 830.67 -556.02 830.34 -555 830 C-554.61689523 828.68010621 -554.28963213 827.34350367 -554 826 C-552.87890625 824.21875 -552.87890625 824.21875 -551.5625 822.5 C-549.76351018 820.08228247 -548.22003745 817.77281238 -547 815 C-546.34 815 -545.68 815 -545 815 C-544.814375 814.195625 -544.62875 813.39125 -544.4375 812.5625 C-542.78856488 808.4760086 -540.54681813 805.68849495 -537.796875 802.28515625 C-535.23235017 799.02374967 -533.11529314 795.56294687 -531 792 C-523.34701055 779.1852286 -523.34701055 779.1852286 -521 776 C-520.34 776 -519.68 776 -519 776 C-518.71125 775.2575 -518.4225 774.515 -518.125 773.75 C-517.17697356 771.43260203 -516.15154089 769.22082885 -515 767 C-514.34 767 -513.68 767 -513 767 C-512.690625 766.05125 -512.38125 765.1025 -512.0625 764.125 C-511 761 -511 761 -510 759 C-509.34 759 -508.68 759 -508 759 C-507.731875 758.29875 -507.46375 757.5975 -507.1875 756.875 C-505.9318551 753.8350176 -504.49764877 750.9272226 -503 748 C-502.34 748 -501.68 748 -501 748 C-500.731875 747.030625 -500.46375 746.06125 -500.1875 745.0625 C-499.795625 744.051875 -499.40375 743.04125 -499 742 C-498.01 741.67 -497.02 741.34 -496 741 C-495.65813124 739.6688296 -495.32687529 738.33493125 -495 737 C-493.74612782 735.12608113 -492.42635626 733.29545634 -491.0625 731.5 C-488.21140152 727.76821792 -488.21140152 727.76821792 -485.87109375 723.71875 C-485 722 -485 722 -483 721 C-481.95191959 719.02477154 -480.9479589 717.02518491 -480 715 C-479.34 715 -478.68 715 -478 715 C-477.690625 714.05125 -477.38125 713.1025 -477.0625 712.125 C-476 709 -476 709 -475 707 C-474.34 707 -473.68 707 -473 707 C-472.89429688 706.41992188 -472.78859375 705.83984375 -472.6796875 705.2421875 C-471.90216775 702.67726603 -470.80303323 701.20375758 -469.125 699.125 C-466.61752546 695.90627067 -464.68204938 692.7378875 -463 689 C-462.34 689 -461.68 689 -461 689 C-460.34 687.35 -459.68 685.7 -459 684 C-458.34 684 -457.68 684 -457 684 C-456.896875 683.46375 -456.79375 682.9275 -456.6875 682.375 C-455.81180468 679.34987072 -454.52752839 676.7495511 -453 674 C-452.34 673.67 -451.68 673.34 -451 673 C-449.6108306 670.68471766 -448.28786241 668.37041343 -447 666 C-443.27027027 659.13513514 -443.27027027 659.13513514 -441 658 C-439.87775145 656.11986894 -439.87775145 656.11986894 -438.875 653.9375 C-438.52179688 653.20402344 -438.16859375 652.47054687 -437.8046875 651.71484375 C-437.53914063 651.14894531 -437.27359375 650.58304688 -437 650 C-436.34 650 -435.68 650 -435 650 C-434.71125 649.030625 -434.4225 648.06125 -434.125 647.0625 C-433 644 -433 644 -431 643 C-429.88365848 641.34948712 -429.88365848 641.34948712 -428.875 639.4375 C-428.25625 638.303125 -427.6375 637.16875 -427 636 C-426.34 636 -425.68 636 -425 636 C-424.896875 635.484375 -424.79375 634.96875 -424.6875 634.4375 C-423.413953 629.92219701 -422.31766238 626.04737266 -418.5625 623.0625 C-415.10381481 620.27868021 -413.74314298 617.01215031 -412 613 C-411.34 613 -410.68 613 -410 613 C-409.79375 612.195625 -409.5875 611.39125 -409.375 610.5625 C-407.37821059 605.38900015 -404.42098258 600.34384343 -400.40625 596.45703125 C-398.12408917 594.09245905 -397.27559161 590.99486727 -396 588 C-395.34 587.67 -394.68 587.34 -394 587 C-393.11249875 585.36153616 -392.28694963 583.68906261 -391.5 582 C-389.22222222 577.11111111 -389.22222222 577.11111111 -387 576 C-385.86649466 573.98330173 -385.86649466 573.98330173 -385 572 C-384.34 572 -383.68 572 -383 572 C-382.731875 571.030625 -382.46375 570.06125 -382.1875 569.0625 C-381.795625 568.051875 -381.40375 567.04125 -381 566 C-380.01 565.67 -379.02 565.34 -378 565 C-377.61873074 563.67957483 -377.29145243 562.34310996 -377 561 C-375.84375 559.18359375 -375.84375 559.18359375 -374.5 557.4375 C-372.76352292 555.17099358 -371.92509236 553.77527707 -371 551 C-370.01414217 549.98605506 -369.0120614 548.98779134 -368 548 C-366.94627107 546.54408446 -365.92682015 545.06292673 -364.9375 543.5625 C-364.17759766 542.41974609 -364.17759766 542.41974609 -363.40234375 541.25390625 C-362.13280317 539.21344687 -361.0322381 537.1681939 -360 535 C-359.34 535 -358.68 535 -358 535 C-357.7525 534.113125 -357.505 533.22625 -357.25 532.3125 C-355.93611137 528.83069514 -354.35988873 526.84574817 -352 524 C-350.25882575 521.06176845 -348.59931608 518.09912307 -346.96484375 515.1015625 C-345.2345626 511.98310902 -343.5715175 509.45463034 -341 507 C-340.649375 506.29875 -340.29875 505.5975 -339.9375 504.875 C-339 503 -339 503 -337 502 C-336.03050757 500.3618921 -335.06689879 498.71978545 -334.14453125 497.0546875 C-332.92540784 494.86609053 -331.66899687 492.70771015 -330.375 490.5625 C-329.97023438 489.88316406 -329.56546875 489.20382812 -329.1484375 488.50390625 C-328.76945312 488.00761719 -328.39046875 487.51132812 -328 487 C-327.34 487 -326.68 487 -326 487 C-325.92523437 486.48308594 -325.85046875 485.96617187 -325.7734375 485.43359375 C-324.66280776 481.93903655 -322.640805 479.08939706 -320.625 476.0625 C-319.8248478 474.84549432 -319.02535627 473.62805398 -318.2265625 472.41015625 C-317.8440332 471.83281738 -317.46150391 471.25547852 -317.06738281 470.66064453 C-316.10285416 469.1600215 -315.2143141 467.61121718 -314.3359375 466.05859375 C-313.89507813 465.37925781 -313.45421875 464.69992187 -313 464 C-312.34 464 -311.68 464 -311 464 C-310.71125 463.071875 -310.4225 462.14375 -310.125 461.1875 C-309 458 -309 458 -307 455 C-306.34 455 -305.68 455 -305 455 C-304.773125 453.948125 -304.54625 452.89625 -304.3125 451.8125 C-303.67525177 448.8579855 -302.87315188 447.87484319 -300.65625 445.6875 C-297.73034277 442.72717033 -296.08860797 439.87788607 -294.1875 436.1875 C-293.58292969 435.02605469 -292.97835937 433.86460937 -292.35546875 432.66796875 C-291.90816406 431.78753906 -291.46085938 430.90710938 -291 430 C-290.34 430 -289.68 430 -289 430 C-288.34 428.35 -287.68 426.7 -287 425 C-286.34 425 -285.68 425 -285 425 C-284.71125 424.0925 -284.4225 423.185 -284.125 422.25 C-281.74418605 415.37209302 -281.74418605 415.37209302 -279 414 C-277.86649466 411.98330173 -277.86649466 411.98330173 -277 410 C-276.34 410 -275.68 410 -275 410 C-274.896875 409.46375 -274.79375 408.9275 -274.6875 408.375 C-273.81180468 405.34987072 -272.52752839 402.7495511 -271 400 C-270.34 399.67 -269.68 399.34 -269 399 C-267.61088608 396.68481013 -266.28813001 394.37015921 -265 392 C-261.39010717 385.37510305 -261.39010717 385.37510305 -259.375 383.4375 C-257.32077865 381.28990495 -256.8117392 378.80986644 -256 376 C-255.34 376 -254.68 376 -254 376 C-254 375.34 -254 374.68 -254 374 C-253.34 373.67 -252.68 373.34 -252 373 C-251.67 372.01 -251.34 371.02 -251 370 C-250 369 -249 368 -248 367 C-246.82425289 364.90010348 -246.82425289 364.90010348 -246 363 C-245.34 363 -244.68 363 -244 363 C-243.7525 362.113125 -243.505 361.22625 -243.25 360.3125 C-241.92174825 356.79263288 -240.37277128 354.90005379 -238 352 C-235.35393399 347.80518669 -232.84530046 343.52535422 -230.44140625 339.1875 C-229.96574219 338.465625 -229.49007812 337.74375 -229 337 C-228.34 337 -227.68 337 -227 337 C-226.814375 336.1028125 -226.814375 336.1028125 -226.625 335.1875 C-226 333 -226 333 -224 330 C-223.34 330 -222.68 330 -222 330 C-221.82791016 329.11828125 -221.82791016 329.11828125 -221.65234375 328.21875 C-220.95579924 325.84966448 -220.05581627 324.44973044 -218.5625 322.5 C-216.76351018 320.08228247 -215.22003745 317.77281238 -214 315 C-213.34 315 -212.68 315 -212 315 C-211.896875 314.46375 -211.79375 313.9275 -211.6875 313.375 C-210.81180468 310.34987072 -209.52752839 307.7495511 -208 305 C-207.34 304.67 -206.68 304.34 -206 304 C-205.05879117 302.35288454 -204.12175021 300.70317896 -203.2109375 299.0390625 C-201.49106345 296.14301653 -199.44654305 293.53951461 -197.3671875 290.89453125 C-196.00172279 289.00238729 -194.98338725 287.11194119 -194 285 C-193.34 285 -192.68 285 -192 285 C-191.9175 284.484375 -191.835 283.96875 -191.75 283.4375 C-190.67859775 279.95544268 -188.86476395 277.12799115 -187 274 C-186.34 274 -185.68 274 -185 274 C-184.814375 273.1028125 -184.814375 273.1028125 -184.625 272.1875 C-184 270 -184 270 -182 267 C-181.34 267 -180.68 267 -180 267 C-179.855625 266.401875 -179.71125 265.80375 -179.5625 265.1875 C-179.1127561 263.43849596 -178.57107659 261.71322977 -178 260 C-177.34 259.67 -176.68 259.34 -176 259 C-174.88365848 257.34948712 -174.88365848 257.34948712 -173.875 255.4375 C-173.25625 254.303125 -172.6375 253.16875 -172 252 C-171.34 252 -170.68 252 -170 252 C-169.814375 251.13375 -169.814375 251.13375 -169.625 250.25 C-168.99351176 247.97664233 -168.11141809 246.0746471 -167 244 C-166.34 244 -165.68 244 -165 244 C-164.731875 243.030625 -164.46375 242.06125 -164.1875 241.0625 C-163.5996875 239.5465625 -163.5996875 239.5465625 -163 238 C-162.01 237.67 -161.02 237.34 -160 237 C-159.60955794 235.68225804 -159.29044914 234.34332728 -159 233 C-156.37974684 227.18987342 -156.37974684 227.18987342 -154 226 C-152.98906028 224.27161918 -151.98137728 222.54093627 -151.01171875 220.7890625 C-149.82979444 218.69901874 -148.58784314 216.8043672 -147 215 C-146.34 215 -145.68 215 -145 215 C-144.9175 214.484375 -144.835 213.96875 -144.75 213.4375 C-142.7978662 207.09306514 -138.4676906 201.71244829 -134.671875 196.359375 C-132.07923021 192.7005959 -129.58335975 189.03209802 -127.375 185.125 C-126.92125 184.42375 -126.4675 183.7225 -126 183 C-125.34 183 -124.68 183 -124 183 C-123.731875 182.113125 -123.46375 181.22625 -123.1875 180.3125 C-122.0749365 177.2090334 -120.89804222 174.68889315 -119 172 C-118.34 172 -117.68 172 -117 172 C-116.72542969 171.43539062 -116.45085938 170.87078125 -116.16796875 170.2890625 C-112.58082155 163.25873388 -108.21436699 156.72342995 -103.61328125 150.32421875 C-101.92734784 147.97080572 -101.92734784 147.97080572 -100.41796875 145.20703125 C-99.95003906 144.47871094 -99.48210938 143.75039063 -99 143 C-98.34 143 -97.68 143 -97 143 C-95.92474806 140.34771188 -94.90543849 137.71631546 -94 135 C-93 134 -92 133 -91 132 C-90.649375 131.29875 -90.29875 130.5975 -89.9375 129.875 C-89 128 -89 128 -87 127 C-85.95040203 125.36411434 -84.95788255 123.69122405 -84 122 C-82.98174533 120.24849833 -81.96093612 118.49847911 -80.9375 116.75 C-80.17759766 115.44289063 -80.17759766 115.44289063 -79.40234375 114.109375 C-78 112 -78 112 -76 111 C-74.86649466 108.98330173 -74.86649466 108.98330173 -74 107 C-73.34 107 -72.68 107 -72 107 C-71.87625 106.4225 -71.7525 105.845 -71.625 105.25 C-70.5127323 101.24583628 -68.89871874 98.89871874 -66 96 C-65.484375 95.113125 -64.96875 94.22625 -64.4375 93.3125 C-63.7259375 92.1678125 -63.7259375 92.1678125 -63 91 C-62.34 91 -61.68 91 -61 91 C-60.855625 90.401875 -60.71125 89.80375 -60.5625 89.1875 C-59.60068707 85.44711638 -58.67581948 83.67581948 -56 81 C-54.1376453 78.33062494 -52.37408126 75.62534668 -50.703125 72.83203125 C-50.26484375 72.10371094 -49.8265625 71.37539063 -49.375 70.625 C-48.97023438 69.93664062 -48.56546875 69.24828125 -48.1484375 68.5390625 C-47.76945313 68.03117187 -47.39046875 67.52328125 -47 67 C-46.34 67 -45.68 67 -45 67 C-44.73316406 66.44183594 -44.46632813 65.88367188 -44.19140625 65.30859375 C-39.72365635 56.65141279 -33.78850989 48.72834889 -28.22119141 40.75537109 C-26.55590264 38.36164333 -24.90693817 35.95689572 -23.25854492 33.55151367 C-21.90435102 31.57665799 -20.54624829 29.60453701 -19.1875 27.6328125 C-17.44650531 25.10610916 -15.71061791 22.57614199 -13.98046875 20.04199219 C-11.80560249 16.85708669 -9.62204384 13.67827317 -7.4375 10.5 C-6.73423584 9.46568848 -6.03097168 8.43137695 -5.30639648 7.36572266 C-4.64712158 6.40972168 -3.98784668 5.4537207 -3.30859375 4.46875 C-2.71876709 3.60701172 -2.12894043 2.74527344 -1.52124023 1.85742188 C-1.01923096 1.24447266 -0.51722168 0.63152344 0 0 Z " transform="translate(1063,404)" style="fill: #BFBFC0;"/><path d="M0 0 C12.21 0 24.42 0 37 0 C37 58.41 37 116.82 37 177 C228.4 177 419.8 177 617 177 C617 190.2 617 203.4 617 217 C413.39 217 209.78 217 0 217 C0 145.39 0 73.78 0 0 Z " transform="translate(1098,1413)" style="fill: #BFC0C0;"/><path d="M0 0 C0.33 0 0.66 0 1 0 C1 158.07 1 316.14 1 479 C67 479 133 479 201 479 C201 492.53 201 506.06 201 520 C120.48 520 39.96 520 -43 520 C-43.73492681 407.04533505 -43.73492681 407.04533505 -43.94140625 359.8515625 C-43.98580499 349.73719749 -44.03069722 339.62283499 -44.07698961 329.50847846 C-44.08326672 328.13667252 -44.08952611 326.76486649 -44.09576754 325.39306039 C-44.19529555 303.55006602 -44.33380919 281.70753462 -44.492848 259.86489915 C-44.66082552 236.76525135 -44.78388399 213.66568457 -44.86002898 190.5655216 C-44.90705301 176.73654398 -44.98962374 162.90872646 -45.11809304 149.08026169 C-45.20282804 139.58951618 -45.24283906 130.09922875 -45.24818632 120.60810937 C-45.25257397 115.13685083 -45.27619049 109.66752073 -45.35309029 104.19676018 C-45.42321853 99.17659218 -45.43651711 94.15943334 -45.40671894 89.13889353 C-45.4056601 87.33362981 -45.42454465 85.52820607 -45.46664336 83.72343297 C-45.77154607 69.91386265 -41.84080059 61.66996005 -33.39930686 50.81809239 C-31.58826754 48.46504396 -29.95090206 46.0128275 -28.328125 43.52734375 C-27.81668945 42.76534668 -27.30525391 42.00334961 -26.77832031 41.21826172 C-18.83163625 29.35916866 -11.13049528 17.34959069 -3.47363281 5.30224609 C-2.33454752 3.52266122 -1.17203802 1.75805703 0 0 Z " transform="translate(864,1110)" style="fill: #BFC0C1;"/><path d="M0 0 C32.34 0 64.68 0 98 0 C95.70405905 4.5918819 93.30450384 8.72421198 90.4375 12.9375 C89.54027128 14.26946841 88.64313855 15.60150147 87.74609375 16.93359375 C87.06135986 17.94655518 87.06135986 17.94655518 86.36279297 18.97998047 C84.66772904 21.49251342 82.98604467 24.0137768 81.30679321 26.53689575 C80.0805924 28.37893166 78.85351204 30.22037676 77.62597656 32.06152344 C77.18935196 32.71641251 76.75272736 33.37130157 76.3028717 34.04603577 C75.13127441 35.80312298 73.95956517 37.56013554 72.7878418 39.31713867 C68.6023253 45.59360364 64.41921883 51.87165952 60.24026489 58.15249634 C58.00143018 61.51707303 55.76162583 64.88100369 53.52172852 68.24487305 C52.37646427 69.96530499 51.23161153 71.68601094 50.0871582 73.40698242 C38.7881322 90.39646574 38.7881322 90.39646574 33.38110352 98.04077148 C31.38798346 100.86820447 29.47414537 103.74174772 27.5625 106.625 C26.71358438 107.90237214 25.86462248 109.17971352 25.015625 110.45703125 C24.31276367 111.51591553 24.31276367 111.51591553 23.59570312 112.59619141 C20.33791322 117.50381065 17.07587865 122.40859582 13.8125 127.3125 C12.81488647 128.81514404 12.81488647 128.81514404 11.79711914 130.34814453 C8.1969592 135.75755369 4.53832986 141.11640315 0.79760742 146.42944336 C-2.60321953 151.29258433 -5.91992234 156.21327728 -9.25 161.125 C-15.80057576 170.77270174 -22.35914827 180.41413337 -29 190 C-29.57411621 190.82967285 -30.14823242 191.6593457 -30.73974609 192.51416016 C-32.61462676 195.22024936 -34.49414473 197.92306071 -36.375 200.625 C-37.25031372 201.88824097 -37.25031372 201.88824097 -38.14331055 203.17700195 C-38.98116089 204.37715942 -38.98116089 204.37715942 -39.8359375 205.6015625 C-40.32626465 206.30619629 -40.8165918 207.01083008 -41.32177734 207.73681641 C-41.87559082 208.48366699 -42.4294043 209.23051758 -43 210 C-43.66614822 211.02262939 -44.33229645 212.04525879 -45.01863098 213.09887695 C-46.62988713 215.00539559 -47.56377545 215.88051805 -49.98834229 216.54460716 C-52.47100992 216.73917677 -54.89043774 216.7422039 -57.38012695 216.68115234 C-58.31719986 216.6820285 -59.25427277 216.68290466 -60.21974182 216.68380737 C-63.31010965 216.6796347 -66.39829373 216.63299696 -69.48828125 216.5859375 C-71.63346674 216.57474425 -73.77866758 216.56620467 -75.9238739 216.56021118 C-81.56477346 216.53732331 -87.20474321 216.4783993 -92.84527588 216.4119873 C-98.60310284 216.35056454 -104.36108034 216.32319611 -110.11914062 216.29296875 C-121.41316851 216.22865696 -132.70650688 216.12627706 -144 216 C-143.59297852 215.39671875 -143.18595703 214.7934375 -142.76660156 214.171875 C-141.96174316 212.97304687 -141.96174316 212.97304687 -141.140625 211.75 C-140.60985352 210.96109375 -140.07908203 210.1721875 -139.53222656 209.359375 C-138.17931963 207.27612251 -136.94487986 205.17618758 -135.75 203 C-134 200 -134 200 -132 199 C-130.6108306 196.68471766 -129.28786241 194.37041343 -128 192 C-124.27027027 185.13513514 -124.27027027 185.13513514 -122 184 C-120.61088608 181.68481013 -119.28813001 179.37015921 -118 177 C-115.97257606 173.27925944 -114.08302617 169.94898155 -111 167 C-110.484375 166.113125 -109.96875 165.22625 -109.4375 164.3125 C-108.963125 163.549375 -108.48875 162.78625 -108 162 C-107.34 162 -106.68 162 -106 162 C-105.85884766 161.18789062 -105.85884766 161.18789062 -105.71484375 160.359375 C-104.78860747 157.30228912 -103.2754644 154.94230995 -101.5625 152.25 C-100.94503906 151.26515625 -100.32757812 150.2803125 -99.69140625 149.265625 C-99.13324219 148.51796875 -98.57507813 147.7703125 -98 147 C-97.34 147 -96.68 147 -96 147 C-95.88527344 146.4121875 -95.77054688 145.824375 -95.65234375 145.21875 C-94.95579924 142.84966448 -94.05581627 141.44973044 -92.5625 139.5 C-90.76351018 137.08228247 -89.22003745 134.77281238 -88 132 C-87.34 132 -86.68 132 -86 132 C-85.896875 131.46375 -85.79375 130.9275 -85.6875 130.375 C-84.81180468 127.34987072 -83.52752839 124.7495511 -82 122 C-81.34 121.67 -80.68 121.34 -80 121 C-78.61088608 118.68481013 -77.28813001 116.37015921 -76 114 C-72.40674116 107.40562985 -72.40674116 107.40562985 -70.5703125 105.57421875 C-68.72247361 103.72178325 -67.37712981 101.74587717 -65.9375 99.5625 C-65.43089844 98.80066406 -64.92429687 98.03882813 -64.40234375 97.25390625 C-63.13280317 95.21344687 -62.0322381 93.1681939 -61 91 C-60.34 91 -59.68 91 -59 91 C-58.731875 90.030625 -58.46375 89.06125 -58.1875 88.0625 C-57.795625 87.051875 -57.40375 86.04125 -57 85 C-56.01 84.67 -55.02 84.34 -54 84 C-53.3185177 82.10820797 -53.3185177 82.10820797 -53 80 C-51.9545437 76.86363109 -51.23811043 76.23811043 -49 74 C-48.484375 73.113125 -47.96875 72.22625 -47.4375 71.3125 C-46.963125 70.549375 -46.48875 69.78625 -46 69 C-45.34 69 -44.68 69 -44 69 C-43.88527344 68.4121875 -43.77054688 67.824375 -43.65234375 67.21875 C-42.95579924 64.84966448 -42.05581627 63.44973044 -40.5625 61.5 C-38.76351018 59.08228247 -37.22003745 56.77281238 -36 54 C-35.34 54 -34.68 54 -34 54 C-33.88269531 53.40832031 -33.76539063 52.81664062 -33.64453125 52.20703125 C-32.96993033 49.89703418 -32.14669932 48.58039323 -30.6875 46.6875 C-28.59877106 43.87872491 -26.85636772 41.00573134 -25.15625 37.94140625 C-23.22158029 34.69299122 -20.99693048 31.65003117 -18.8125 28.56640625 C-17.05758192 26.08153302 -15.3294194 23.58225463 -13.625 21.0625 C-13.14289063 20.35222656 -12.66078125 19.64195313 -12.1640625 18.91015625 C-10.84362553 16.90362561 -10.84362553 16.90362561 -10 14 C-9 13 -8 12 -7 11 C-6.484375 10.113125 -5.96875 9.22625 -5.4375 8.3125 C-4.963125 7.549375 -4.48875 6.78625 -4 6 C-3.34 6 -2.68 6 -2 6 C-1.855625 5.38125 -1.71125 4.7625 -1.5625 4.125 C-1 2 -1 2 0 0 Z " transform="translate(661,1409)" style="fill: #2A569D;"/><path d="M0 0 C4.1613029 2.08065145 7.2928754 4.64729699 10.75 7.6875 C11.40540771 8.25911865 12.06081543 8.8307373 12.73608398 9.41967773 C18.30534849 14.31203697 23.69962146 19.37926762 29.08251953 24.47460938 C36.59396938 31.55667691 44.4455224 38.21963593 52.38671875 44.8125 C54.65487125 46.69888986 56.87176895 48.62886224 59.06752014 50.59877014 C61.72949954 52.96383478 64.4717705 55.07706916 67.36228943 57.15403748 C74.85846165 62.96955817 80.08381321 68.5094175 81.4914856 78.16238403 C82.12151652 86.18019063 81.97358568 94.17337761 81.72369695 102.20534444 C81.6162338 106.25133962 81.60734811 110.29763131 81.58726501 114.34483337 C81.53476339 121.98197038 81.39575489 129.6148898 81.22432369 137.25018257 C80.99738036 147.58593624 80.90673923 157.92287248 80.80778599 168.26049519 C80.6487044 184.51014614 80.30987307 200.75090418 80 217 C53.6 217 27.2 217 0 217 C0 145.39 0 73.78 0 0 Z " transform="translate(1715,1413)" style="fill: #2A559C;"/><path d="M0 0 C0.33 0 0.66 0 1 0 C1.23430987 17.8812911 1.41028663 35.76218013 1.51812172 53.64467812 C1.56953797 61.94918978 1.63954721 70.2527439 1.75439453 78.55664062 C1.85452794 85.80016081 1.91868949 93.04298716 1.94088495 100.2871803 C1.95384669 104.11817685 1.98397882 107.94718974 2.05730057 111.77754593 C2.5896922 140.69520269 2.5896922 140.69520269 -6.5050354 150.52352905 C-7.74004288 151.74938217 -7.74004288 151.74938217 -9 153 C-10.21413861 154.78104879 -11.39026479 156.58959439 -12.5 158.4375 C-15.395126 163.06416069 -18.36226233 167.63687727 -21.375 172.1875 C-21.81650391 172.86031006 -22.25800781 173.53312012 -22.71289062 174.22631836 C-23.78176334 175.83569107 -24.88736304 177.42056707 -26 179 C-26.33 179 -26.66 179 -27 179 C-27 137.75 -27 96.5 -27 54 C-29.97 54 -32.94 54 -36 54 C-32.25 46.125 -32.25 46.125 -30 45 C-28.88365848 43.34948712 -28.88365848 43.34948712 -27.875 41.4375 C-26.946875 39.7359375 -26.946875 39.7359375 -26 38 C-25.34 38 -24.68 38 -24 38 C-23.87625 37.4225 -23.7525 36.845 -23.625 36.25 C-22.99351176 33.97664233 -22.11141809 32.0746471 -21 30 C-20.34 30 -19.68 30 -19 30 C-18.731875 29.030625 -18.46375 28.06125 -18.1875 27.0625 C-17.795625 26.051875 -17.40375 25.04125 -17 24 C-16.01 23.67 -15.02 23.34 -14 23 C-13.38932856 21.14255793 -13.38932856 21.14255793 -13 19 C-12.36345658 17.6520257 -11.70394612 16.31403276 -11 15 C-10.34 15 -9.68 15 -9 15 C-8.731875 14.030625 -8.46375 13.06125 -8.1875 12.0625 C-7.795625 11.051875 -7.40375 10.04125 -7 9 C-6.01 8.67 -5.02 8.34 -4 8 C-3.63451555 6.67511887 -3.3062434 5.33981486 -3 4 C-1.5 1.75 -1.5 1.75 0 0 Z " transform="translate(820,1179)" style="fill: #2B569A;"/><path d="M0 0 C0.99 0.66 1.98 1.32 3 2 C3.36914349 4.52623177 3.36914349 4.52623177 3.36076355 7.78323364 C3.36488754 9.01444946 3.36901154 10.24566528 3.3732605 11.51419067 C3.36264237 12.88592746 3.35173794 14.25766206 3.34057617 15.62939453 C3.33973032 17.06809471 3.34020422 18.50679618 3.34190369 19.94549561 C3.34276671 23.85858822 3.32509156 27.77140664 3.30418181 31.68443537 C3.28546598 35.77104469 3.28366861 39.85765985 3.28010559 43.94430542 C3.2707701 51.68623009 3.24613607 59.42802813 3.21605712 67.16989696 C3.17630002 77.62914861 3.16007038 88.08843473 3.14255047 98.54774284 C3.11431596 115.03192347 3.05455656 131.51583683 3 148 C-22.41 148 -47.82 148 -74 148 C-74 147.67 -74 147.34 -74 147 C-49.25 146.67 -24.5 146.34 1 146 C1.02913254 121.26367347 1.02913254 121.26367347 1.04882812 96.52734375 C1.0547627 86.44058728 1.06174096 76.35383916 1.07543945 66.26708984 C1.08541103 58.92110806 1.09185933 51.57513305 1.09408849 44.22914469 C1.09539139 40.34002445 1.09845065 36.45092357 1.10573006 32.56180954 C1.11252928 28.89948188 1.11460901 25.23718154 1.11310768 21.57484818 C1.11351294 19.59359641 1.11888778 17.6123476 1.12442017 15.63110352 C1.12235817 13.85175919 1.12235817 13.85175919 1.12025452 12.03646851 C1.12117631 11.00959112 1.1220981 9.98271374 1.12304783 8.92471886 C0.99492018 5.87925785 0.56207424 2.99332257 0 0 Z " transform="translate(1792,1482)" style="fill: #2357A9;"/><path d="M0 0 C0.04627979 9.22269206 0.08184694 18.44534434 0.10362434 27.66812706 C0.11407483 31.95034248 0.12825697 36.23247864 0.15087891 40.51464844 C0.17256238 44.64488126 0.18455909 48.77503769 0.18975449 52.90532303 C0.19345835 54.48343738 0.2006908 56.06154741 0.21146011 57.63962936 C0.22591549 59.84496951 0.22798048 62.04999142 0.22705078 64.25537109 C0.231492 65.51223724 0.23593323 66.76910339 0.24050903 68.0640564 C0 71 0 71 -2 73 C-2 50.56 -2 28.12 -2 5 C-2.99 5.33 -3.98 5.66 -5 6 C-2.69230769 0 -2.69230769 0 0 0 Z " transform="translate(1065,404)" style="fill: #B6C0D5;"/><path d="M0 0 C0 3.54327917 -1.0417032 5.10027503 -3.36151695 7.72392654 C-6.39271233 10.08466379 -9.89765584 9.78029587 -13.55395508 9.68115234 C-14.82789124 9.68246658 -14.82789124 9.68246658 -16.12756348 9.68380737 C-18.92583222 9.67963776 -21.72168305 9.63301755 -24.51953125 9.5859375 C-26.46293325 9.57474308 -28.40635222 9.56620406 -30.34977722 9.56021118 C-35.45806858 9.53733221 -40.56533186 9.47841675 -45.67321777 9.4119873 C-50.8881235 9.35054482 -56.1031958 9.32319195 -61.31835938 9.29296875 C-71.54602395 9.22867283 -81.77292639 9.12630437 -92 9 C-92 8.67 -92 8.34 -92 8 C-81.08237771 7.84634224 -70.1646963 7.69816046 -59.24690437 7.5570364 C-54.17774501 7.4913386 -49.10862593 7.42373009 -44.03955078 7.35180664 C-39.15076623 7.28251072 -34.26193964 7.21816623 -29.37304306 7.15730476 C-27.5046437 7.13316522 -25.63626681 7.10721907 -23.76791763 7.07946587 C-21.15797695 7.04100058 -18.54803138 7.00886732 -15.93798828 6.97827148 C-15.1597168 6.96532547 -14.38144531 6.95237946 -13.57958984 6.93904114 C-8.22810432 6.88594784 -8.22810432 6.88594784 -6 8 C-5.9071875 7.13375 -5.9071875 7.13375 -5.8125 6.25 C-4.67972699 3.11309013 -2.65802405 1.90832496 0 0 Z " transform="translate(618,1616)" style="fill: #2356AA;"/><path d="M0 0 C1.125 3.75 1.125 3.75 0 6 C-0.66 6 -1.32 6 -2 6 C-2 7.32 -2 8.64 -2 10 C-2.99 10.495 -2.99 10.495 -4 11 C-4.495 11.845625 -4.99 12.69125 -5.5 13.5625 C-5.995 14.366875 -6.49 15.17125 -7 16 C-7.66 16 -8.32 16 -9 16 C-8.979375 17.134375 -8.95875 18.26875 -8.9375 19.4375 C-9.56073079 24.88103139 -13.05388774 27.68523522 -16.87109375 31.3125 C-19 33 -19 33 -21 33 C-21.28875 33.969375 -21.5775 34.93875 -21.875 35.9375 C-23 39 -23 39 -25 40 C-24.505 37.03 -24.505 37.03 -24 34 C-23.34 34 -22.68 34 -22 34 C-22 33.34 -22 32.68 -22 32 C-21.34 31.67 -20.68 31.34 -20 31 C-19.67 30.01 -19.34 29.02 -19 28 C-18 27 -17 26 -16 25 C-14.82425289 22.90010348 -14.82425289 22.90010348 -14 21 C-13.34 21 -12.68 21 -12 21 C-11.62875 19.6696875 -11.62875 19.6696875 -11.25 18.3125 C-9.92174825 14.79263288 -8.37277128 12.90005379 -6 10 C-3.93007177 6.70739357 -1.95752917 3.36042508 0 0 Z " transform="translate(831,746)" style="fill: #A1B2CF;"/><path d="M0 0 C0.33 1.32 0.66 2.64 1 4 C0.01 4.33 -0.98 4.66 -2 5 C-2.59070014 6.94603274 -2.59070014 6.94603274 -3 9 C-3.66 9.66 -4.32 10.32 -5 11 C-5.309375 12.010625 -5.61875 13.02125 -5.9375 14.0625 C-6.288125 15.031875 -6.63875 16.00125 -7 17 C-7.99 17.33 -8.98 17.66 -10 18 C-10 18.66 -10 19.32 -10 20 C-10.66 20 -11.32 20 -12 20 C-12.12375 20.639375 -12.2475 21.27875 -12.375 21.9375 C-12.58125 22.618125 -12.7875 23.29875 -13 24 C-13.66 24.33 -14.32 24.66 -15 25 C-13.41458579 18.81688457 -9.9964082 12.96629355 -5.4453125 8.4609375 C-3.86250487 6.86101844 -2.89041567 5.28248381 -1.8125 3.3125 C-1.214375 2.219375 -0.61625 1.12625 0 0 Z " transform="translate(351,1467)" style="fill: #A8B8D2;"/><path d="M0 0 C0.33 0.66 0.66 1.32 1 2 C0.29296875 3.91015625 0.29296875 3.91015625 -0.8125 6.0625 C-1.16957031 6.77535156 -1.52664063 7.48820313 -1.89453125 8.22265625 C-3 10 -3 10 -5 11 C-5.61875 12.155 -6.2375 13.31 -6.875 14.5 C-8.71408109 17.88086712 -8.71408109 17.88086712 -11.25 18.9375 C-11.8275 18.958125 -12.405 18.97875 -13 19 C-12.34 17.68 -11.68 16.36 -11 15 C-10.34 15 -9.68 15 -9 15 C-8.8865625 14.41347656 -8.773125 13.82695313 -8.65625 13.22265625 C-7.94890619 10.82695013 -7.01553616 9.40681588 -5.5 7.4375 C-3.76352292 5.17099358 -2.92509236 3.77527707 -2 1 C-1.34 0.67 -0.68 0.34 0 0 Z " transform="translate(694,954)" style="fill: #AABAD1;"/><path d="M0 0 C0 7.16742061 -4.33207952 12.02994874 -9 17 C-9.99 16.67 -10.98 16.34 -12 16 C-11.59007812 15.46890625 -11.18015625 14.9378125 -10.7578125 14.390625 C-10.21898437 13.68421875 -9.68015625 12.9778125 -9.125 12.25 C-8.32449219 11.20585937 -8.32449219 11.20585937 -7.5078125 10.140625 C-6.10761086 8.15277397 -5.02144735 6.20156614 -4 4 C-3.34 4 -2.68 4 -2 4 C-1.34 2.68 -0.68 1.36 0 0 Z " transform="translate(1020,467)" style="fill: #AEBBD1;"/><path d="M0 0 C1.25541557 3.76624671 0.37061958 5.37188934 -1 9 C-1.99 9 -2.98 9 -4 9 C-4.1546875 10.36125 -4.1546875 10.36125 -4.3125 11.75 C-5.00904617 15.04276372 -5.6405968 16.6405968 -8 19 C-8.99 19 -9.98 19 -11 19 C-10.34 17.35 -9.68 15.7 -9 14 C-8.34 14 -7.68 14 -7 14 C-6.89816406 13.44828125 -6.79632813 12.8965625 -6.69140625 12.328125 C-5.84495404 9.47792433 -4.49979966 7.27627179 -2.9375 4.75 C-2.38964844 3.85796875 -1.84179688 2.9659375 -1.27734375 2.046875 C-0.85582031 1.37140625 -0.43429687 0.6959375 0 0 Z " transform="translate(308,1531)" style="fill: #ADBACF;"/><path d="M0 0 C1.31065245 2.62130489 1.415469 4.09171697 1 7 C-1.1875 9 -1.1875 9 -4 11 C-5.68528688 12.64783606 -7.35697047 14.31002677 -9 16 C-9.33 15.34 -9.66 14.68 -10 14 C-9.5875 13.649375 -9.175 13.29875 -8.75 12.9375 C-6.75435348 10.72803421 -5.41614702 8.3179669 -3.984375 5.71875 C-2.81569649 3.67820023 -1.46793174 1.83491467 0 0 Z " transform="translate(916,619)" style="fill: #B1B9CA;"/><path d="M0 0 C1.25541557 3.76624671 0.37061958 5.37188934 -1 9 C-1.99 9 -2.98 9 -4 9 C-4.33 10.65 -4.66 12.3 -5 14 C-5.66 14 -6.32 14 -7 14 C-7 14.99 -7 15.98 -7 17 C-7.66 17 -8.32 17 -9 17 C-9 17.66 -9 18.32 -9 19 C-9.99 18.67 -10.98 18.34 -12 18 C-11.57847656 17.45730469 -11.15695312 16.91460938 -10.72265625 16.35546875 C-10.17480469 15.64003906 -9.62695312 14.92460938 -9.0625 14.1875 C-8.51722656 13.47980469 -7.97195313 12.77210938 -7.41015625 12.04296875 C-5.83143752 9.95874948 -5.83143752 9.95874948 -5 7 C-4 6 -3 5 -2 4 C-0.82425289 1.90010348 -0.82425289 1.90010348 0 0 Z " transform="translate(724,907)" style="fill: #A1B5D5;"/><path d="M0 0 C0.66 0.33 1.32 0.66 2 1 C0.49810827 3.62831052 -1.021199 6.02598588 -2.9375 8.375 C-4.60061472 10.49169146 -5.75896787 12.33683913 -7 14.6875 C-9.01028086 18.01702767 -9.63269204 18.57590934 -13 20 C-8.75127462 13.27494651 -4.44635898 6.59624684 0 0 Z " transform="translate(709,1484)" style="fill: #3E78DB;"/><path d="M0 0 C1 3 1 3 0.14453125 5.12109375 C-2.23261652 9.25496069 -4.40571292 12.7908151 -8 16 C-8.33 16.66 -8.66 17.32 -9 18 C-9.66 17.67 -10.32 17.34 -11 17 C-7.56704016 11.13683491 -4.03949132 5.46519414 0 0 Z " transform="translate(959,555)" style="fill: #AAB9D3;"/><path d="M0 0 C0.67578125 1.703125 0.67578125 1.703125 1 4 C-0.14453125 6.359375 -0.14453125 6.359375 -1.8125 8.75 C-2.62654297 9.94882813 -2.62654297 9.94882813 -3.45703125 11.171875 C-3.96621094 11.77515625 -4.47539063 12.3784375 -5 13 C-5.66 13 -6.32 13 -7 13 C-7.66 14.32 -8.32 15.64 -9 17 C-9 14 -9 14 -8 11 C-7.34 11 -6.68 11 -6 11 C-5.731875 10.030625 -5.46375 9.06125 -5.1875 8.0625 C-4.795625 7.051875 -4.40375 6.04125 -4 5 C-3.01 4.67 -2.02 4.34 -1 4 C-0.26676204 1.98491642 -0.26676204 1.98491642 0 0 Z " transform="translate(568,1141)" style="fill: #95ABD3;"/><path d="M0 0 C1.24546405 2.49092811 0.7767578 3.41080733 0 6 C-0.66 6 -1.32 6 -2 6 C-2.33 7.32 -2.66 8.64 -3 10 C-3.66 10 -4.32 10 -5 10 C-5.33 11.65 -5.66 13.3 -6 15 C-6.99 15 -7.98 15 -9 15 C-9 12 -9 12 -7.625 10.5625 C-7.08875 10.046875 -6.5525 9.53125 -6 9 C-5.649375 8.29875 -5.29875 7.5975 -4.9375 6.875 C-4 5 -4 5 -2 4 C-0.86649466 1.98330173 -0.86649466 1.98330173 0 0 Z " transform="translate(437,1338)" style="fill: #ABB9D2;"/><path d="M0 0 C0.33 0 0.66 0 1 0 C1 1.65 1 3.3 1 5 C0.01 5.33 -0.98 5.66 -2 6 C-2.0825 6.7425 -2.165 7.485 -2.25 8.25 C-3.1396946 11.51221354 -4.48503749 12.80954878 -7 15 C-7.66 14.67 -8.32 14.34 -9 14 C-7.32872835 10.41870361 -5.83923419 7.72093276 -3 5 C-1.99431758 3.33675599 -0.99335201 1.67063747 0 0 Z " transform="translate(486,1264)" style="fill: #A5B7CF;"/><path d="M0 0 C1.29893162 3.89679485 0.61411215 5.25819455 -1 9 C-3.07694537 11.90909898 -5.47337025 14.47337025 -8 17 C-8.33 16.34 -8.66 15.68 -9 15 C-8.22265625 13.2734375 -8.22265625 13.2734375 -7.0625 11.375 C-6.0415625 9.704375 -6.0415625 9.704375 -5 8 C-4.34 8 -3.68 8 -3 8 C-2.690625 7.05125 -2.38125 6.1025 -2.0625 5.125 C-1 2 -1 2 0 0 Z " transform="translate(553,1163)" style="fill: #A5B5D1;"/><path d="M0 0 C1 2 1 2 0.75 3.9375 C-0.11068767 6.3043911 -1.04326211 7.43460969 -3 9 C-3.66 9 -4.32 9 -5 9 C-5.66 11.31 -6.32 13.62 -7 16 C-7.99 16 -8.98 16 -10 16 C-10 15.34 -10 14.68 -10 14 C-9.34 14 -8.68 14 -8 14 C-7.731875 13.113125 -7.46375 12.22625 -7.1875 11.3125 C-6.0749365 8.2090334 -4.89804222 5.68889315 -3 3 C-2.34 3 -1.68 3 -1 3 C-0.67 2.01 -0.34 1.02 0 0 Z " transform="translate(947,573)" style="fill: #A6B5D1;"/><path d="M0 0 C0.33 0 0.66 0 1 0 C1 1.98 1 3.96 1 6 C0.01 6 -0.98 6 -2 6 C-2.33 7.32 -2.66 8.64 -3 10 C-3.66 10 -4.32 10 -5 10 C-5 10.99 -5 11.98 -5 13 C-5.99 13 -6.98 13 -8 13 C-8.33 14.32 -8.66 15.64 -9 17 C-9.66 16.67 -10.32 16.34 -11 16 C-9.91507037 13.23836094 -9.05171111 12.03810293 -6.625 10.25 C-3.20782506 7.32099291 -1.76967651 4.07322192 0 0 Z " transform="translate(277,1578)" style="fill: #A0B5D3;"/><path d="M0 0 C1.125 3.75 1.125 3.75 0 6 C-0.66 6 -1.32 6 -2 6 C-2 7.32 -2 8.64 -2 10 C-2.99 10.495 -2.99 10.495 -4 11 C-5.0409066 12.64142963 -6.04504326 14.30712215 -7 16 C-8 13 -8 13 -6.85546875 10.625 C-6.30503906 9.75875 -5.75460937 8.8925 -5.1875 8 C-4.64480469 7.13375 -4.10210938 6.2675 -3.54296875 5.375 C-2.37390468 3.57552923 -1.19032069 1.78548103 0 0 Z " transform="translate(831,746)" style="fill: #A8B9D3;"/><path d="M0 0 C0.66 0 1.32 0 2 0 C2.36625971 4.51720311 2.36625971 4.51720311 0.625 6.8125 C-1 8 -1 8 -3 8 C-3 8.66 -3 9.32 -3 10 C-3.66 10 -4.32 10 -5 10 C-5 10.66 -5 11.32 -5 12 C-5.66 11.67 -6.32 11.34 -7 11 C-5.88368586 9.16136495 -4.75670373 7.32920277 -3.625 5.5 C-2.99851562 4.4790625 -2.37203125 3.458125 -1.7265625 2.40625 C-1.15679688 1.6121875 -0.58703125 0.818125 0 0 Z " transform="translate(750,868)" style="fill: #A3B6D1;"/><path d="M0 0 C1.32 0.33 2.64 0.66 4 1 C3.59007812 1.53109375 3.18015625 2.0621875 2.7578125 2.609375 C1.94957031 3.66898438 1.94957031 3.66898438 1.125 4.75 C0.59132813 5.44609375 0.05765625 6.1421875 -0.4921875 6.859375 C-1.89238914 8.84722603 -2.97855265 10.79843386 -4 13 C-4.33 13 -4.66 13 -5 13 C-5.25532751 9.93606987 -5.21861333 8.36766788 -3.625 5.6875 C-2.820625 4.8521875 -2.820625 4.8521875 -2 4 C-1.34 4 -0.68 4 0 4 C0 2.68 0 1.36 0 0 Z " transform="translate(533,1596)" style="fill: #B0B8C8;"/><path d="M0 0 C0.33 0.66 0.66 1.32 1 2 C-0.25 5.5625 -0.25 5.5625 -2 9 C-2.99 9.33 -3.98 9.66 -5 10 C-5.3721042 11.32303717 -5.70630173 12.65737935 -6 14 C-6.99 14.495 -6.99 14.495 -8 15 C-7.37240135 12.07120629 -6.41377341 9.63904371 -5 7 C-4.34 7 -3.68 7 -3 7 C-2.690625 6.030625 -2.38125 5.06125 -2.0625 4.0625 C-1 1 -1 1 0 0 Z " transform="translate(901,641)" style="fill: #A5B8D4;"/><path d="M0 0 C0.33 1.32 0.66 2.64 1 4 C0.01 4.66 -0.98 5.32 -2 6 C-3.07136051 8.30144109 -4.07989717 10.6340213 -5 13 C-5.66 13 -6.32 13 -7 13 C-7 13.66 -7 14.32 -7 15 C-7.66 15 -8.32 15 -9 15 C-7.18690997 11.22272911 -5.0926741 7.62730178 -3 4 C-2.34 4 -1.68 4 -1 4 C-0.67 2.68 -0.34 1.36 0 0 Z " transform="translate(738,887)" style="fill: #A7B8D2;"/><path d="M0 0 C0.66 1.32 1.32 2.64 2 4 C1.1028125 4.86625 1.1028125 4.86625 0.1875 5.75 C-1.7482684 7.74107607 -3.38909283 9.74472997 -5 12 C-5.66 11.67 -6.32 11.34 -7 11 C-6.01 9.02 -5.02 7.04 -4 5 C-3.34 5 -2.68 5 -2 5 C-1.34 3.35 -0.68 1.7 0 0 Z " transform="translate(292,1556)" style="fill: #A7B7D2;"/><path d="M0 0 C0 3.48961209 -0.90379374 5.11480295 -2.5 8.1875 C-2.9640625 9.08855469 -3.428125 9.98960937 -3.90625 10.91796875 C-4.2671875 11.60503906 -4.628125 12.29210937 -5 13 C-6.32 12.67 -7.64 12.34 -9 12 C-8.34 11.01 -7.68 10.02 -7 9 C-6.34 9 -5.68 9 -5 9 C-3.92474806 6.34771188 -2.90543849 3.71631546 -2 1 C-1.34 0.67 -0.68 0.34 0 0 Z " transform="translate(971,538)" style="fill: #A0B4D4;"/><path d="M0 0 C0.33 0 0.66 0 1 0 C1 1.98 1 3.96 1 6 C0.401875 6.268125 -0.19625 6.53625 -0.8125 6.8125 C-2.97224808 7.98493467 -4.35790256 9.19369282 -6 11 C-4.125 5.25 -4.125 5.25 -3 3 C-2.34 3 -1.68 3 -1 3 C-0.67 2.01 -0.34 1.02 0 0 Z " transform="translate(499,1245)" style="fill: #A4B4D2;"/><path d="M0 0 C0.66 0.33 1.32 0.66 2 1 C1.34 2.32 0.68 3.64 0 5 C-0.66 5 -1.32 5 -2 5 C-2.28875 5.969375 -2.5775 6.93875 -2.875 7.9375 C-4 11 -4 11 -6 12 C-5.67 9.69 -5.34 7.38 -5 5 C-4.01 4.67 -3.02 4.34 -2 4 C-0.79117904 1.99983534 -0.79117904 1.99983534 0 0 Z " transform="translate(857,704)" style="fill: #467CD3;"/><path d="M0 0 C0 3.20395416 -0.74335022 5.09399739 -2 8 C-2.66 8 -3.32 8 -4 8 C-4.33 8.99 -4.66 9.98 -5 11 C-6.485 11.99 -6.485 11.99 -8 13 C-7.39816251 10.97954558 -6.72693904 8.97888961 -6 7 C-5.34 6.67 -4.68 6.34 -4 6 C-2.96986723 4.35178756 -1.96885372 2.68496298 -1 1 C-0.67 0.67 -0.34 0.34 0 0 Z " transform="translate(980,525)" style="fill: #A6B8D3;"/><path d="M0 0 C0.33 0.66 0.66 1.32 1 2 C-0.68988328 5.21077824 -2.6455311 8.23605824 -5 11 C-5.66 11 -6.32 11 -7 11 C-7.66 12.32 -8.32 13.64 -9 15 C-8.67 13.35 -8.34 11.7 -8 10 C-7.01 9.67 -6.02 9.34 -5 9 C-3.78130071 6.49552484 -3.78130071 6.49552484 -3 4 C-2.34 4 -1.68 4 -1 4 C-0.67 2.68 -0.34 1.36 0 0 Z " transform="translate(607,1084)" style="fill: #A2B5D5;"/><path d="M0 0 C1 3 1 3 -0.1875 5.4375 C-1.93979049 7.91487622 -3.78315483 9.9360407 -6 12 C-6.66 11.67 -7.32 11.34 -8 11 C-5.36 7.37 -2.72 3.74 0 0 Z " transform="translate(621,1613)" style="fill: #3C78DA;"/><path d="M0 0 C1 3 1 3 0 5 C-0.66 5 -1.32 5 -2 5 C-2.2475 5.763125 -2.495 6.52625 -2.75 7.3125 C-4.10995558 10.2364045 -5.31585826 11.30004356 -8 13 C-7.625 11.0625 -7.625 11.0625 -7 9 C-6.34 8.67 -5.68 8.34 -5 8 C-3.91852299 6.38240139 -3.91852299 6.38240139 -2.9375 4.5 C-1.08071749 1.08071749 -1.08071749 1.08071749 0 0 Z " transform="translate(415,1371)" style="fill: #98B1D7;"/><path d="M0 0 C0.66 0 1.32 0 2 0 C1.34 1.98 0.68 3.96 0 6 C-0.66 6 -1.32 6 -2 6 C-2.0825 6.598125 -2.165 7.19625 -2.25 7.8125 C-3.20455872 10.5966296 -4.57132271 11.43311142 -7 13 C-6.625 11.0625 -6.625 11.0625 -6 9 C-5.34 8.67 -4.68 8.34 -4 8 C-2.87775145 6.11986894 -2.87775145 6.11986894 -1.875 3.9375 C-1.34519531 2.83728516 -1.34519531 2.83728516 -0.8046875 1.71484375 C-0.53914062 1.14894531 -0.27359375 0.58304688 0 0 Z " transform="translate(626,1054)" style="fill: #A1B6D7;"/><path d="M0 0 C0.33 0.66 0.66 1.32 1 2 C-1.16798732 7.4770206 -1.16798732 7.4770206 -4.1875 9.375 C-4.785625 9.58125 -5.38375 9.7875 -6 10 C-4.6302836 6.00499382 -2.74277578 3.19990508 0 0 Z " transform="translate(255,1611)" style="fill: #B4C0D5;"/><path d="M0 0 C1 3 1 3 0.00390625 5.26171875 C-0.47175781 6.06222656 -0.94742188 6.86273437 -1.4375 7.6875 C-1.91058594 8.49574219 -2.38367188 9.30398438 -2.87109375 10.13671875 C-3.42990234 11.05904297 -3.42990234 11.05904297 -4 12 C-4.66 12 -5.32 12 -6 12 C-5.42415568 9.61435923 -4.77772405 7.33317216 -4 5 C-3.34 4.67 -2.68 4.34 -2 4 C-0.86649466 1.98330173 -0.86649466 1.98330173 0 0 Z " transform="translate(671,987)" style="fill: #A2B7D5;"/><path d="M0 0 C0.33 0 0.66 0 1 0 C1.125 3.375 1.125 3.375 1 7 C-1 9 -1 9 -4 9 C-2.94124926 5.59687262 -1.99097846 2.98646769 0 0 Z " transform="translate(756,859)" style="fill: #A8B6CE;"/><path d="M0 0 C0.33 0.66 0.66 1.32 1 2 C0.02471263 3.33617352 -0.95533319 4.6688751 -1.9375 6 C-2.48277344 6.7425 -3.02804687 7.485 -3.58984375 8.25 C-4.05519531 8.8275 -4.52054688 9.405 -5 10 C-5.33 10 -5.66 10 -6 10 C-6.375 7.8125 -6.375 7.8125 -6 5 C-4.16038352 3.00977164 -2.20813852 1.61010101 0 0 Z " transform="translate(767,842)" style="fill: #5786D4;"/><path d="M0 0 C1.24546405 2.49092811 0.7767578 3.41080733 0 6 C-0.66 6 -1.32 6 -2 6 C-2.103125 6.639375 -2.20625 7.27875 -2.3125 7.9375 C-2.539375 8.618125 -2.76625 9.29875 -3 10 C-3.99 10.33 -4.98 10.66 -6 11 C-5.67 9.68 -5.34 8.36 -5 7 C-4.34 7 -3.68 7 -3 7 C-2.87625 6.401875 -2.7525 5.80375 -2.625 5.1875 C-2 3 -2 3 0 0 Z " transform="translate(839,734)" style="fill: #9CB1D4;"/><path d="M0 0 C1 3 1 3 -0.25 6 C-1.69149811 8.47113961 -2.85630917 10.16255071 -5 12 C-5.66 11.67 -6.32 11.34 -7 11 C-4.69 7.37 -2.38 3.74 0 0 Z " transform="translate(671,1540)" style="fill: #3D79D9;"/><path d="M0 0 C0.66 0 1.32 0 2 0 C0.76075855 4.95696581 -0.78577758 7.11658466 -5 10 C-5 8.68 -5 7.36 -5 6 C-4.34 6 -3.68 6 -3 6 C-2.67 4.68 -2.34 3.36 -2 2 C-1.34 2 -0.68 2 0 2 C0 1.34 0 0.68 0 0 Z " transform="translate(638,1034)" style="fill: #4F81D4;"/><path d="M0 0 C1 2 1 2 0.0625 5.125 C-0.288125 6.07375 -0.63875 7.0225 -1 8 C-1.66 8 -2.32 8 -3 8 C-3.33 8.99 -3.66 9.98 -4 11 C-4.66 11 -5.32 11 -6 11 C-5.34 9.02 -4.68 7.04 -4 5 C-3.34 5 -2.68 5 -2 5 C-1.34 3.35 -0.68 1.7 0 0 Z " transform="translate(776,829)" style="fill: #99AFD2;"/><path d="M0 0 C0.33 0 0.66 0 1 0 C1.33 1.98 1.66 3.96 2 6 C0.1875 7.5625 0.1875 7.5625 -2 9 C-2.99 8.67 -3.98 8.34 -5 8 C-4.19185349 6.66402348 -3.37836819 5.331275 -2.5625 4 C-2.11003906 3.2575 -1.65757812 2.515 -1.19140625 1.75 C-0.79824219 1.1725 -0.40507813 0.595 0 0 Z " transform="translate(876,678)" style="fill: #A8B7D1;"/><path d="M0 0 C0 3.95875396 -1.21313946 6.49009536 -3 10 C-5.1875 11.4375 -5.1875 11.4375 -7 12 C-5.44298069 7.32894208 -2.91552627 3.91294315 0 0 Z " transform="translate(1034,446)" style="fill: #B1BDD5;"/><path d="M0 0 C0.66 0.66 1.32 1.32 2 2 C1.8125 4 1.8125 4 1 6 C-0.485 6.99 -0.485 6.99 -2 8 C-2.6875 6.25 -2.6875 6.25 -3 4 C-1.5625 1.75 -1.5625 1.75 0 0 Z " transform="translate(264,1592)" style="fill: #437CD9;"/><path d="M0 0 C1.25541557 3.76624671 0.37061958 5.37188934 -1 9 C-1.99 9 -2.98 9 -4 9 C-4 9.99 -4 10.98 -4 12 C-4.99 11.67 -5.98 11.34 -7 11 C-6.57847656 10.37351562 -6.15695312 9.74703125 -5.72265625 9.1015625 C-4.90087891 7.87566406 -4.90087891 7.87566406 -4.0625 6.625 C-3.51722656 5.81289062 -2.97195313 5.00078125 -2.41015625 4.1640625 C-0.98906121 2.07280816 -0.98906121 2.07280816 0 0 Z " transform="translate(308,1531)" style="fill: #A1B7D6;"/><path d="M0 0 C0.33 1.32 0.66 2.64 1 4 C0.01 4.33 -0.98 4.66 -2 5 C-2.144375 5.61875 -2.28875 6.2375 -2.4375 6.875 C-3.1872454 9.7073715 -4.59730651 10.44987517 -7 12 C-6.625 10.0625 -6.625 10.0625 -6 8 C-5.34 7.67 -4.68 7.34 -4 7 C-2.88365848 5.34948712 -2.88365848 5.34948712 -1.875 3.4375 C-1.25625 2.303125 -0.6375 1.16875 0 0 Z " transform="translate(351,1467)" style="fill: #99B1D6;"/><path d="M0 0 C0.75 1.6875 0.75 1.6875 1 4 C-0.8125 6.75 -0.8125 6.75 -3 9 C-3.66 9 -4.32 9 -5 9 C-5 9.66 -5 10.32 -5 11 C-5.66 10.67 -6.32 10.34 -7 10 C-6.34 9.01 -5.68 8.02 -5 7 C-4.34 7 -3.68 7 -3 7 C-2.814375 6.1028125 -2.814375 6.1028125 -2.625 5.1875 C-2 3 -2 3 0 0 Z " transform="translate(511,1227)" style="fill: #9EB5D4;"/><path d="M0 0 C0.375 2.1875 0.375 2.1875 0 5 C-1.83961648 6.99022836 -3.79186148 8.38989899 -6 10 C-6 9.01 -6 8.02 -6 7 C-5.34 7 -4.68 7 -4 7 C-3.690625 6.030625 -3.38125 5.06125 -3.0625 4.0625 C-1.65306122 0 -1.65306122 0 0 0 Z " transform="translate(805,1202)" style="fill: #5170A4;"/><path d="M0 0 C0.33 0 0.66 0 1 0 C1 1.65 1 3.3 1 5 C0.34 5 -0.32 5 -1 5 C-1 5.99 -1 6.98 -1 8 C-1.99 8 -2.98 8 -4 8 C-4 8.99 -4 9.98 -4 11 C-4.66 10.67 -5.32 10.34 -6 10 C-5.34 8.68 -4.68 7.36 -4 6 C-3.34 6 -2.68 6 -2 6 C-1.855625 5.38125 -1.71125 4.7625 -1.5625 4.125 C-1 2 -1 2 0 0 Z " transform="translate(406,1384)" style="fill: #A8B8D3;"/><path d="M0 0 C0.33 0 0.66 0 1 0 C1.25 2.75 1.25 2.75 1 6 C-1 8.375 -1 8.375 -3 10 C-4 7 -4 7 -3.22265625 5.17578125 C-2.1484375 3.45052083 -1.07421875 1.72526042 0 0 Z " transform="translate(470,1287)" style="fill: #A5B4D2;"/><path d="M0 0 C0.33 0 0.66 0 1 0 C1.3125 2.1875 1.3125 2.1875 1 5 C-1.5 7.8125 -1.5 7.8125 -4 10 C-3.4359146 6.05140217 -2.2568294 3.29120954 0 0 Z " transform="translate(933,593)" style="fill: #A7B7D2;"/><path d="M0 0 C0.66 0 1.32 0 2 0 C0.52307692 6.64615385 0.52307692 6.64615385 -2.125 8.4375 C-2.74375 8.623125 -3.3625 8.80875 -4 9 C-1.125 2.25 -1.125 2.25 0 0 Z " transform="translate(324,1507)" style="fill: #A8B7D0;"/><path d="M0 0 C0.66 0 1.32 0 2 0 C0.34832443 3.5786304 -1.78286492 6.74820188 -4 10 C-4.33 9.34 -4.66 8.68 -5 8 C-4.07421875 6.0546875 -4.07421875 6.0546875 -2.6875 3.875 C-2.23761719 3.15054687 -1.78773438 2.42609375 -1.32421875 1.6796875 C-0.88722656 1.12539062 -0.45023438 0.57109375 0 0 Z " transform="translate(733,1445)" style="fill: #2458A9;"/><path d="M0 0 C-1.49836105 3.11198065 -3.19933758 6.0534615 -5 9 C-6.45169732 6.09660535 -5.72348441 4.09125158 -5 1 C-3 0 -3 0 0 0 Z " transform="translate(751,1421)" style="fill: #2558A9;"/><path d="M0 0 C0.66 0.33 1.32 0.66 2 1 C0.625 3.5 0.625 3.5 -1 6 C-1.66 6 -2.32 6 -3 6 C-3.66 7.32 -4.32 8.64 -5 10 C-4.125 5.25 -4.125 5.25 -3 3 C-2.34 3 -1.68 3 -1 3 C-0.67 2.01 -0.34 1.02 0 0 Z " transform="translate(321,1510)" style="fill: #5283CF;"/><path d="M0 0 C0.66 1.32 1.32 2.64 2 4 C0.35 5.32 -1.3 6.64 -3 8 C-2.45276317 4.62537285 -1.9451 2.91765 0 0 Z " transform="translate(620,1471)" style="fill: #3E609C;"/><path d="M0 0 C0.33 1.32 0.66 2.64 1 4 C-0.9375 6.25 -0.9375 6.25 -3 8 C-3.66 7.67 -4.32 7.34 -5 7 C-3.35 4.69 -1.7 2.38 0 0 Z " transform="translate(524,1208)" style="fill: #A4B7D2;"/><path d="M0 0 C0.8125 1.6875 0.8125 1.6875 1 4 C-1.4375 6.75 -1.4375 6.75 -4 9 C-4.33 8.34 -4.66 7.68 -5 7 C-4.54625 6.5875 -4.0925 6.175 -3.625 5.75 C-1.94049626 3.93591905 -1.00734029 2.24714373 0 0 Z " transform="translate(911,626)" style="fill: #A0B4D4;"/><path d="M0 0 C1 3 1 3 0 5 C-0.66 5 -1.32 5 -2 5 C-2 5.99 -2 6.98 -2 8 C-2.99 8 -3.98 8 -5 8 C-3.62845496 5.04590299 -2.01136276 2.55991624 0 0 Z " transform="translate(927,603)" style="fill: #A3B7D6;"/><path d="M0 0 C0.66 0 1.32 0 2 0 C0.8141763 3.37503669 -0.27573689 5.64722731 -3 8 C-3 6.35 -3 4.7 -3 3 C-2.34 3 -1.68 3 -1 3 C-0.67 2.01 -0.34 1.02 0 0 Z " transform="translate(1030,448)" style="fill: #5080CF;"/><path d="M0 0 C0.66 0 1.32 0 2 0 C1.50168276 3.68754757 0.89932357 5.60490662 -2 8 C-2.66 7.67 -3.32 7.34 -4 7 C-2.68 4.69 -1.36 2.38 0 0 Z " transform="translate(579,1531)" style="fill: #4D6DA2;"/><path d="M0 0 C0.6875 1.75 0.6875 1.75 1 4 C-0.3125 6.25 -0.3125 6.25 -2 8 C-2.66 8 -3.32 8 -4 8 C-2.87548273 5.0280615 -1.77706209 2.66559313 0 0 Z " transform="translate(367,1443)" style="fill: #A2B4D6;"/><path d="M0 0 C0.33 1.32 0.66 2.64 1 4 C-0.32 4.99 -1.64 5.98 -3 7 C-3.33 6.01 -3.66 5.02 -4 4 C-2.68 2.68 -1.36 1.36 0 0 Z " transform="translate(452,1316)" style="fill: #A2B4D0;"/><path d="M0 0 C0.99 0.33 1.98 0.66 3 1 C2.1875 3.9375 2.1875 3.9375 1 7 C0.01 7.33 -0.98 7.66 -2 8 C-2.33 7.01 -2.66 6.02 -3 5 C-2.01 5 -1.02 5 0 5 C0 3.35 0 1.7 0 0 Z " transform="translate(787,807)" style="fill: #4B7FD5;"/><path d="M0 0 C0.66 0.33 1.32 0.66 2 1 C1.1875 3.4375 1.1875 3.4375 0 6 C-0.99 6.33 -1.98 6.66 -3 7 C-2.38722388 4.03824877 -1.74627478 2.61941217 0 0 Z " transform="translate(891,656)" style="fill: #A9B7D0;"/><path d="M0 0 C0.66 0.66 1.32 1.32 2 2 C-0.97 4.475 -0.97 4.475 -4 7 C-4 4 -4 4 -2 1.8125 C-1.34 1.214375 -0.68 0.61625 0 0 Z " transform="translate(908,633)" style="fill: #B2BDCE;"/><path d="M0 0 C-0.60183749 2.02045442 -1.27306096 4.02111039 -2 6 C-2.99 6.495 -2.99 6.495 -4 7 C-4.04254356 5.00045254 -4.04080783 2.99958364 -4 1 C-3 0 -3 0 0 0 Z " transform="translate(276,1580)" style="fill: #5884D1;"/><path d="M0 0 C0.66 0.33 1.32 0.66 2 1 C1.3503125 1.5878125 1.3503125 1.5878125 0.6875 2.1875 C-1.26366224 4.28319278 -2.59010162 6.51589333 -4 9 C-4 6.37886292 -3.68707555 4.49064888 -3 2 C-2.01 2 -1.02 2 0 2 C0 1.34 0 0.68 0 0 Z " transform="translate(517,1216)" style="fill: #5383D1;"/><path d="M0 0 C0.66 0.99 1.32 1.98 2 3 C1.01 4.65 0.02 6.3 -1 8 C-1.99 7.67 -2.98 7.34 -4 7 C-2.68 4.69 -1.36 2.38 0 0 Z " transform="translate(792,804)" style="fill: #A3B5D0;"/><path d="M0 0 C0.33 1.32 0.66 2.64 1 4 C0.01 4.33 -0.98 4.66 -2 5 C-2.73323796 7.01508358 -2.73323796 7.01508358 -3 9 C-3.66 9 -4.32 9 -5 9 C-3.7508258 5.54074837 -2.32472205 2.85306797 0 0 Z " transform="translate(863,698)" style="fill: #9EB4D8;"/><path d="M0 0 C0.66 0.33 1.32 0.66 2 1 C0.6875 3.9375 0.6875 3.9375 -1 7 C-1.99 7.33 -2.98 7.66 -4 8 C-3.49396008 5.83125748 -3.00016187 4.00032373 -2 2 C-1.34 2 -0.68 2 0 2 C0 1.34 0 0.68 0 0 Z " transform="translate(992,504)" style="fill: #5382D0;"/><path d="M0 0 C0.66 0.99 1.32 1.98 2 3 C1.01 3.99 0.02 4.98 -1 6 C-1.99 5.67 -2.98 5.34 -4 5 C-2.68 3.35 -1.36 1.7 0 0 Z " transform="translate(1012,478)" style="fill: #A3B3CE;"/></svg>